<svg xmlns="http://www.w3.org/2000/svg" version="1.1" xmlns:xlink="http://www.w3.org/1999/xlink"
    xmlns:svgjs="http://svgjs.dev/svgjs" width="2000" height="1500" viewBox="0 0 2000 1500">
    <rect width="2000" height="1500" fill="#ffffff"></rect>
    <g transform="matrix(0.75,0,0,0.75,249.2500000000001,-0.7491781655845671)">
        <svg viewBox="0 0 280 280" data-background-color="transparent"
            preserveAspectRatio="xMidYMid meet"
            height="2000" width="2000" xmlns="http://www.w3.org/2000/svg"
            xmlns:xlink="http://www.w3.org/1999/xlink">
            <g id="tight-bounds" transform="matrix(1,0,0,1,0.13999999999998636,0.13984659090911578)">
                <svg viewBox="0 0 279.72 279.72" height="279.72" width="279.72">
                    <g>
                        <svg viewBox="0 0 279.72 279.72" height="279.72" width="279.72">
                            <g>
                                <svg viewBox="0 0 279.72 279.72" height="279.72" width="279.72">
                                    <g id="textblocktransform">
                                        <svg viewBox="0 0 279.72 279.72" height="279.72"
                                            width="279.72" id="textblock">
                                            <g>
                                                <svg viewBox="0 0 279.72 279.72" height="279.72"
                                                    width="279.72">
                                                    <g
                                                        transform="matrix(1,0,0,1,57.446704652707865,57.446704652707865)">
                                                        <svg
                                                            viewBox="0 0 164.8265906945843 164.8265906945843"
                                                            height="164.8265906945843"
                                                            width="164.8265906945843">
                                                            <g id="icon-0">
                                                                <circle r="82"
                                                                    cx="82.41329534729215"
                                                                    cy="82.41329534729215"
                                                                    fill="#7c4e29"
                                                                    data-fill-palette-color="accent"></circle>
                                                                <svg
                                                                    xmlns="http://www.w3.org/2000/svg"
                                                                    xmlns:xlink="http://www.w3.org/1999/xlink"
                                                                    version="1.1"
                                                                    x="24.723988604187646"
                                                                    y="24.72398860418764"
                                                                    viewBox="10.603 10.71 78.795 78.57900000000001"
                                                                    enable-background="new 0 0 100 100"
                                                                    xml:space="preserve"
                                                                    height="115.378613486209"
                                                                    width="115.378613486209"
                                                                    class="icon-jxe-0"
                                                                    data-fill-palette-color="quaternary"
                                                                    id="jxe-0"><path d="M79.236 48.382L79.894 48.322C79.106 39.623 71.023 32.886 61.43 32.886L61.168 32.887C56.553 32.958 52.241 34.54 48.895 37.333A20 20 0 0 0 40.74 35.698C36.807 35.751 33.167 36.891 30.179 38.828L23.373 10.71 20.457 11.416 27.588 40.876A16.8 16.8 0 0 0 24.349 45.07L13.462 21.673 10.742 22.939 22.581 48.382H10.603V49.882C10.603 71.611 28.274 89.289 49.996 89.289 71.723 89.289 89.398 71.611 89.398 49.882V48.382zM61.212 35.888L61.436 35.887C69.403 35.887 76.114 41.325 76.876 48.382H58.938C57.846 44.488 55.26 41.158 51.787 38.888 54.453 37.003 57.726 35.942 61.212 35.888M40.779 38.7C47.774 38.605 53.792 42.682 55.799 48.383H26.172C28.171 42.781 34.059 38.791 40.779 38.7M49.995 86.29C30.43 86.29 14.422 70.766 13.633 51.383H56.469L56.471 51.395 56.601 51.383H86.368C85.578 70.765 69.564 86.29 49.995 86.29" fill="#ffffff" data-fill-palette-color="quaternary"></path></svg>
                                                            </g>
                                                        </svg>
                                                    </g>
                                                    <g id="text-0">
                                                        <path
                                                            d="M21.855 92.297v0c0.057 0.042 0.133 0.112 0.228 0.21 0.095 0.098 0.194 0.205 0.297 0.32 0.097 0.113 0.176 0.217 0.236 0.31 0.052 0.097 0.064 0.156 0.036 0.174v0c0 0-0.053-0.033-0.159-0.099-0.108-0.06-0.223-0.133-0.344-0.218-0.13-0.082-0.249-0.16-0.36-0.235-0.114-0.084-0.194-0.133-0.239-0.149v0c-1.711-0.984-3.292-1.541-4.743-1.67-1.447-0.121-2.736 0.076-3.867 0.591-1.138 0.513-2.119 1.286-2.943 2.32-0.824 1.033-1.48 2.199-1.965 3.495v0c-0.329 0.934-0.58 1.882-0.753 2.843-0.171 0.954-0.272 1.843-0.303 2.667-0.031 0.824 0 1.543 0.092 2.158 0.095 0.609 0.242 1.028 0.442 1.257v0c0.219 0.257 0.168 0.289-0.152 0.097v0c-0.53-0.395-0.906-1.075-1.128-2.038-0.228-0.965-0.317-2.033-0.265-3.201 0.05-1.162 0.227-2.341 0.533-3.535 0.303-1.188 0.736-2.212 1.298-3.072v0c0.353-0.574 0.763-1.124 1.229-1.65 0.475-0.531 0.986-1.012 1.534-1.446 0.55-0.439 1.154-0.806 1.812-1.099 0.66-0.3 1.366-0.497 2.119-0.592v0c1.452-0.179 2.835-0.03 4.149 0.447 1.316 0.471 2.388 1.176 3.216 2.115zM22.403 89.975v0c1.127 0.886 2.078 1.872 2.853 2.959 0.776 1.086 1.426 2.182 1.95 3.288 0.522 1.112 0.927 2.208 1.216 3.288 0.282 1.078 0.498 2.068 0.649 2.97v0c0.034 0.271 0.055 0.498 0.062 0.68 0.014 0.185-0.001 0.269-0.046 0.253v0c-0.041 0.036-0.092-0.054-0.153-0.269-0.067-0.218-0.136-0.44-0.208-0.667v0c-0.577-1.65-1.228-3.275-1.952-4.875-0.722-1.607-1.647-3.149-2.774-4.625v0c-0.586-0.746-1.285-1.406-2.098-1.98-0.815-0.568-1.702-1.02-2.662-1.359-0.967-0.34-1.963-0.544-2.99-0.611-1.033-0.069-2.047 0.031-3.041 0.3v0c-1.307 0.36-2.454 0.952-3.443 1.777-0.988 0.825-1.811 1.79-2.466 2.897-0.663 1.105-1.167 2.301-1.513 3.59-0.355 1.292-0.564 2.582-0.629 3.869v0c-0.021 0.201-0.027 0.321-0.019 0.36 0.012 0.047-0.008 0.073-0.059 0.076v0c-0.054 0.01-0.091-0.039-0.11-0.146-0.011-0.112-0.028-0.208-0.05-0.288v0c-0.097-0.603-0.117-1.343-0.059-2.222 0.051-0.881 0.233-1.835 0.544-2.863 0.303-1.023 0.765-2.069 1.386-3.138 0.621-1.069 1.447-2.077 2.479-3.023v0c1.129-1.02 2.344-1.692 3.646-2.018 1.295-0.328 2.549-0.433 3.759-0.316 1.204 0.115 2.32 0.378 3.348 0.791 1.019 0.416 1.812 0.851 2.38 1.302zM28.911 109.061v0c-0.226 0.05-0.568 0.091-1.026 0.124-0.462 0.024-0.982-0.011-1.559-0.107v0c-0.291-0.052-0.612-0.133-0.962-0.242-0.348-0.115-0.672-0.237-0.973-0.364-0.298-0.134-0.542-0.259-0.731-0.376-0.195-0.119-0.277-0.224-0.245-0.313v0c0.009-0.026 0.083-0.032 0.222-0.019 0.142 0.007 0.298 0.022 0.469 0.047 0.171 0.024 0.333 0.056 0.485 0.095 0.152 0.039 0.263 0.071 0.333 0.095v0c0.611 0.165 1.232 0.301 1.864 0.409 0.631 0.107 1.258 0.155 1.881 0.144v0c-0.702-1.154-1.373-2.423-2.016-3.807-0.651-1.38-1.321-2.746-2.01-4.097-0.696-1.353-1.451-2.63-2.266-3.831-0.808-1.198-1.734-2.186-2.777-2.964v0c-0.712-0.531-1.529-0.877-2.451-1.036-0.922-0.159-1.812-0.145-2.67 0.042v0c-0.845 0.192-1.635 0.608-2.371 1.247-0.743 0.638-1.373 1.405-1.891 2.303v0c-0.208 0.366-0.401 0.729-0.578 1.091-0.178 0.362-0.34 0.751-0.487 1.167v0c0.364 0.049 0.75 0.138 1.158 0.267 0.401 0.127 0.793 0.272 1.174 0.435 0.384 0.157 0.743 0.323 1.077 0.498 0.343 0.171 0.64 0.337 0.893 0.498v0c1.12 0.762 2.228 1.58 3.322 2.455 1.097 0.869 2.13 1.747 3.098 2.634v0c0.055 0.07 0.142 0.169 0.262 0.298 0.124 0.137 0.179 0.228 0.163 0.273v0c-0.016 0.045-0.116 0.035-0.302-0.031-0.186-0.065-0.306-0.122-0.361-0.17v0c-0.268-0.116-0.592-0.28-0.97-0.493-0.372-0.21-0.753-0.427-1.142-0.65-0.38-0.228-0.756-0.457-1.128-0.689-0.365-0.229-0.669-0.441-0.91-0.634v0c-0.125-0.094-0.429-0.295-0.911-0.601-0.48-0.313-1.038-0.657-1.676-1.033-0.642-0.384-1.324-0.776-2.047-1.174-0.719-0.39-1.39-0.72-2.014-0.99v0l-0.146 0.412c0.874 0.358 1.745 0.805 2.614 1.342 0.862 0.534 1.72 1.113 2.572 1.737 0.848 0.615 1.697 1.249 2.547 1.901 0.852 0.645 1.72 1.254 2.606 1.824v0c0.189 0.117 0.52 0.302 0.992 0.555 0.476 0.261 1.02 0.525 1.631 0.79 0.618 0.268 1.276 0.525 1.974 0.771 0.698 0.246 1.378 0.428 2.041 0.546 0.67 0.121 1.29 0.167 1.862 0.138 0.578-0.027 1.038-0.199 1.38-0.517zM20.876 93.42v0c1.015 0.919 1.917 2.013 2.707 3.284 0.783 1.269 1.502 2.598 2.157 3.987 0.655 1.389 1.249 2.786 1.784 4.19 0.538 1.413 1.059 2.712 1.563 3.896v0c0.097 0.236 0.034 0.476-0.19 0.721-0.229 0.243-0.461 0.399-0.693 0.468v0c-0.809 0.255-1.654 0.356-2.536 0.305-0.881-0.051-1.759-0.206-2.632-0.463-0.873-0.257-1.734-0.593-2.581-1.006-0.847-0.414-1.644-0.867-2.392-1.361v0c-1.739-1.13-3.392-2.299-4.959-3.506-1.568-1.207-3.107-2.231-4.617-3.072v0c-0.294 1.285-0.402 2.488-0.321 3.61 0.08 1.122 0.361 1.947 0.843 2.477v0c0.045 0.016 0.062 0.04 0.05 0.072-0.014 0.038-0.102 0.004-0.265-0.105v0c-0.581-0.413-0.98-1.058-1.197-1.932-0.217-0.875-0.284-1.848-0.202-2.921 0.085-1.078 0.301-2.193 0.649-3.343 0.354-1.149 0.814-2.228 1.378-3.238v0c0.617-1.099 1.416-1.958 2.397-2.577 0.974-0.621 1.999-1.019 3.075-1.194 1.083-0.173 2.149-0.117 3.201 0.167 1.06 0.28 1.987 0.793 2.781 1.541zM10.483 98.047v0c0.69-0.059 1.505 0.109 2.444 0.505 0.948 0.392 1.904 0.876 2.867 1.452 0.971 0.572 1.891 1.159 2.758 1.76 0.868 0.601 1.574 1.076 2.12 1.427v0c1.006 0.657 1.991 1.374 2.955 2.152 0.957 0.776 1.804 1.434 2.542 1.975v0c0.279 0.228 0.411 0.364 0.395 0.409v0c-0.025 0.07-0.101 0.083-0.229 0.038-0.122-0.043-0.24-0.085-0.355-0.126v0c-1.671-0.668-3.255-1.503-4.752-2.504-1.503-1.004-3.01-2.057-4.521-3.158v0c-0.927-0.657-1.902-1.321-2.925-1.99-1.03-0.672-2.154-1.248-3.374-1.728v0c-0.16-0.056-0.242-0.11-0.245-0.162v0c0.009-0.026 0.049-0.037 0.12-0.034 0.079-0.001 0.146-0.006 0.2-0.016zM26.168 98.986v0c0.035-0.017 0.112 0.061 0.231 0.232 0.119 0.172 0.245 0.378 0.376 0.618 0.138 0.243 0.272 0.484 0.403 0.725 0.133 0.234 0.223 0.399 0.269 0.494v0c0.311 0.649 0.626 1.307 0.945 1.973 0.319 0.666 0.559 1.323 0.72 1.97v0l0.86 3.778c0.01 0.054 0.013 0.127 0.009 0.219-0.008 0.084-0.029 0.144-0.064 0.182v0c-0.044 0.042-0.086 0.049-0.126 0.021-0.04-0.029-0.078-0.064-0.114-0.105v0c-0.044-0.037-0.081-0.086-0.11-0.147v0c-0.138-0.487-0.325-1.05-0.561-1.687-0.236-0.637-0.479-1.295-0.73-1.973v0c-0.163-0.496-0.377-1.093-0.642-1.791-0.271-0.7-0.522-1.378-0.751-2.034-0.233-0.665-0.424-1.236-0.573-1.713-0.155-0.479-0.202-0.733-0.142-0.762z"
                                                            fill="#7c4e29"
                                                            data-fill-palette-color="primary"></path>
                                                        <path
                                                            d="M47.498 49.428v0c0.313 0.019 0.639 0.109 0.978 0.271 0.344 0.166 0.665 0.403 0.963 0.711 0.298 0.298 0.56 0.665 0.788 1.101 0.227 0.436 0.378 0.936 0.453 1.499v0c0.138 1.079 0.092 2.078-0.139 2.997-0.23 0.919-0.573 1.629-1.03 2.131v0c-0.278 0.306-0.331 0.258-0.158-0.144v0c0.091-0.211 0.179-0.479 0.264-0.805 0.09-0.331 0.164-0.7 0.222-1.106 0.058-0.406 0.087-0.847 0.088-1.322 0.006-0.471-0.045-0.954-0.155-1.449v0c-0.178-0.813-0.476-1.469-0.894-1.968-0.422-0.494-0.873-0.73-1.352-0.706v0c-0.412 0.02-0.761 0.161-1.046 0.424-0.285 0.263-0.517 0.836-0.697 1.719v0c-0.174 0.796-0.222 1.605-0.144 2.428 0.068 0.823 0.191 1.641 0.369 2.454v0c0.073 0.424 0.08 0.669 0.021 0.734-0.055 0.06-0.195-0.108-0.421-0.506v0c-0.431-0.787-0.74-1.617-0.925-2.492-0.191-0.88-0.23-1.759-0.118-2.639v0c0.095-0.639 0.237-1.174 0.428-1.606 0.196-0.427 0.427-0.772 0.693-1.034 0.276-0.263 0.57-0.45 0.881-0.561 0.312-0.111 0.622-0.154 0.931-0.131zM50.702 49.687v0c0.368 0.463 0.631 0.904 0.791 1.324 0.155 0.425 0.251 0.824 0.287 1.197 0.032 0.378 0.027 0.717-0.016 1.017-0.048 0.305-0.083 0.58-0.105 0.826v0c-0.009 0.121-0.047 0.182-0.114 0.186-0.072-0.001-0.112-0.088-0.12-0.261v0c0.026-0.563-0.039-1.218-0.195-1.965-0.161-0.751-0.508-1.388-1.042-1.911v0c-0.954-0.867-1.894-1.296-2.821-1.285v0c-0.927 0.01-1.677 0.392-2.251 1.144-0.574 0.762-0.962 1.739-1.165 2.931v0c-0.137 0.766-0.168 1.516-0.095 2.253 0.068 0.732 0.208 1.441 0.418 2.127 0.215 0.691 0.486 1.341 0.814 1.95 0.336 0.609 0.711 1.17 1.125 1.684v0c0.403 0.495 0.844 1.019 1.321 1.573 0.487 0.553 1.017 1.035 1.589 1.444 0.582 0.41 1.234 0.696 1.958 0.859 0.719 0.168 1.512 0.118 2.378-0.149v0c0.128-0.04 0.247-0.101 0.359-0.183 0.106-0.087 0.17-0.121 0.189-0.103v0c0.035 0.032 0.017 0.098-0.055 0.197-0.072 0.1-0.174 0.186-0.305 0.26v0c-0.501 0.37-1.034 0.582-1.598 0.638-0.564 0.065-1.115 0.031-1.655-0.102-0.539-0.123-1.055-0.313-1.548-0.567-0.497-0.25-0.913-0.514-1.248-0.791v0c-1.516-1.177-2.737-2.649-3.661-4.417v0c-0.19-0.366-0.386-0.796-0.588-1.29-0.206-0.499-0.379-1.041-0.517-1.626-0.143-0.589-0.233-1.212-0.268-1.868-0.041-0.661-0.001-1.331 0.12-2.009v0c0.123-0.64 0.325-1.24 0.606-1.801 0.285-0.566 0.636-1.068 1.053-1.506 0.421-0.443 0.885-0.791 1.391-1.046 0.516-0.255 1.064-0.399 1.645-0.431v0c0.533-0.001 1.094 0.123 1.682 0.374 0.584 0.256 1.131 0.698 1.641 1.327zM47.512 51.258v0c0.447 0.012 0.862 0.339 1.243 0.978 0.382 0.65 0.572 1.515 0.57 2.596v0c0.014 0.6-0.025 1.137-0.118 1.613-0.088 0.48-0.271 1.015-0.55 1.604v0c0.5 0.822 1.059 1.564 1.676 2.226 0.617 0.653 1.173 1.121 1.667 1.406v0c0.174 0.131 0.385 0.217 0.632 0.258 0.242 0.037 0.488-0.002 0.737-0.114 0.254-0.118 0.51-0.334 0.769-0.65 0.258-0.325 0.503-0.795 0.732-1.411v0c0.064-0.171 0.12-0.258 0.168-0.26 0.048-0.002 0.053 0.108 0.016 0.331v0c-0.046 0.555-0.18 1.056-0.404 1.503-0.228 0.453-0.502 0.819-0.82 1.099-0.328 0.28-0.682 0.453-1.063 0.519-0.382 0.057-0.76-0.017-1.135-0.22v0c-0.755-0.43-1.468-0.963-2.137-1.599-0.665-0.641-1.242-1.358-1.731-2.152-0.494-0.788-0.875-1.625-1.142-2.511-0.263-0.881-0.365-1.767-0.307-2.659v0c0.108-1.672 0.507-2.525 1.197-2.557zM55.852 59.336v0c0.067 0.29 0.101 0.605 0.102 0.946-0.003 0.346-0.046 0.701-0.129 1.065-0.088 0.369-0.203 0.723-0.346 1.062-0.152 0.339-0.351 0.644-0.598 0.915v0c-0.425 0.467-0.922 0.808-1.493 1.022-0.576 0.22-1.275 0.152-2.1-0.203v0c-0.102-0.029-0.186-0.073-0.251-0.132-0.06-0.055-0.074-0.1-0.042-0.135v0c0.033-0.107 0.122-0.16 0.266-0.157 0.144 0.003 0.296 0.008 0.455 0.014v0c0.409 0.014 0.845-0.052 1.309-0.199 0.468-0.152 0.833-0.371 1.093-0.657v0c0.493-0.542 0.835-1.085 1.025-1.627 0.2-0.543 0.329-1.113 0.387-1.712v0c0.027-0.141 0.068-0.296 0.122-0.467 0.05-0.166 0.116-0.078 0.2 0.265zM47.646 52.563v0c-0.204-0.058-0.324 0.311-0.358 1.105v0c-0.053 0.704 0.022 1.368 0.225 1.993 0.203 0.625 0.473 1.255 0.81 1.892v0c0.15-0.488 0.252-0.968 0.306-1.441 0.054-0.473 0.095-0.927 0.123-1.361v0c0.016-0.481-0.108-0.956-0.37-1.423-0.262-0.468-0.508-0.723-0.736-0.765z"
                                                            fill="#7c4e29"
                                                            data-fill-palette-color="primary"></path>
                                                        <path
                                                            d="M81.53 19.475v0c-0.126-0.54-0.346-1.157-0.662-1.85-0.312-0.702-0.672-1.379-1.08-2.031-0.399-0.649-0.839-1.23-1.319-1.743-0.474-0.516-0.96-0.85-1.455-1.001v0c-0.202-0.062-0.326-0.049-0.373 0.036-0.056 0.083 0.015 0.18 0.212 0.291v0c0.423 0.275 0.842 0.817 1.257 1.626 0.415 0.809 0.81 1.718 1.185 2.725 0.378 1.014 0.709 2.048 0.994 3.103 0.285 1.055 0.507 1.994 0.667 2.816v0c0.052 0.357 0.146 0.787 0.284 1.29 0.131 0.507 0.26 1.023 0.385 1.548 0.126 0.525 0.264 1.032 0.416 1.52 0.149 0.482 0.282 0.884 0.399 1.205v0c0.035 0.066 0.088 0.195 0.161 0.388 0.072 0.192 0.153 0.295 0.244 0.308v0c0.042-0.022 0.058-0.15 0.05-0.384-0.012-0.224-0.02-0.362-0.024-0.414v0c-0.125-1.478-0.28-3.041-0.465-4.687-0.19-1.644-0.482-3.226-0.876-4.746zM84.953 27.708v0c-0.096-0.441-0.211-1.025-0.345-1.753-0.137-0.719-0.307-1.501-0.51-2.346-0.2-0.839-0.421-1.709-0.662-2.611-0.247-0.898-0.526-1.754-0.835-2.566-0.309-0.812-0.649-1.53-1.02-2.155-0.38-0.628-0.774-1.095-1.183-1.4v0c-0.05-0.05-0.125-0.091-0.226-0.122-0.101-0.031-0.105 0.041-0.013 0.215v0c0.772 1.35 1.364 2.795 1.777 4.335 0.403 1.538 0.718 2.962 0.945 4.271v0c0.193 1.027 0.377 2.059 0.552 3.096 0.178 1.028 0.396 2.03 0.655 3.007 0.258 0.977 0.582 1.896 0.971 2.758 0.392 0.867 0.9 1.627 1.524 2.279v0c0.234 0.237 0.383 0.338 0.449 0.303v0c0.053-0.059 0.011-0.217-0.126-0.475v0c-0.204-0.383-0.398-0.834-0.58-1.351-0.18-0.527-0.349-1.09-0.507-1.691-0.155-0.609-0.307-1.235-0.458-1.878-0.153-0.649-0.289-1.287-0.408-1.916zM89.036 36.835v0c-0.799 0.318-1.67 0.3-2.61-0.052-0.941-0.353-1.764-0.96-2.469-1.823v0c-0.685-0.811-1.235-1.722-1.649-2.731-0.405-1.007-0.712-1.989-0.922-2.946v0c-0.344-1.47-0.641-3.011-0.891-4.622-0.256-1.609-0.569-3.164-0.937-4.667-0.378-1.505-0.874-2.886-1.489-4.143-0.605-1.254-1.419-2.27-2.441-3.048v0c-0.055-0.002-0.113-0.032-0.175-0.091-0.059-0.068-0.107-0.078-0.142-0.029v0c-0.06 0.032-0.029 0.112 0.092 0.239v0c0.69 0.893 1.267 1.955 1.729 3.185 0.459 1.224 0.852 2.541 1.179 3.95 0.324 1.403 0.624 2.87 0.9 4.399 0.279 1.535 0.583 3.053 0.912 4.554v0c0.238 1.111 0.595 2.231 1.073 3.361 0.481 1.135 1.128 2.186 1.942 3.152v0c0.422 0.49 0.888 0.888 1.396 1.194 0.509 0.306 1.029 0.517 1.56 0.635 0.525 0.12 1.05 0.153 1.574 0.096 0.515-0.059 0.995-0.218 1.44-0.478v0l0.09-0.048c0.024-0.013 0.051-0.042 0.08-0.088v0c-0.035-0.066-0.115-0.065-0.242 0.001zM87.21 35.743v0c-0.622-0.245-1.239-0.659-1.848-1.242v0c-0.056-0.047-0.143-0.131-0.262-0.253-0.115-0.115-0.23-0.231-0.345-0.346-0.121-0.112-0.235-0.217-0.341-0.315-0.106-0.098-0.168-0.141-0.185-0.132v0c-0.09 0.048-0.06 0.212 0.09 0.494 0.147 0.276 0.35 0.579 0.61 0.909 0.26 0.33 0.552 0.648 0.876 0.953 0.333 0.307 0.64 0.524 0.922 0.65v0c0.545 0.202 1.017 0.251 1.416 0.147 0.401-0.098 0.785-0.244 1.15-0.439v0c0.132-0.07 0.213-0.163 0.243-0.28 0.04-0.113-0.051-0.138-0.27-0.075v0c-0.652 0.262-1.337 0.239-2.056-0.071z"
                                                            fill="#7c4e29"
                                                            data-fill-palette-color="primary"></path>
                                                        <path
                                                            d="M124.02 13.242v0c0.022-0.327 0.006-0.692-0.047-1.097-0.061-0.41-0.16-0.823-0.297-1.24-0.145-0.423-0.341-0.817-0.587-1.183-0.246-0.365-0.537-0.668-0.872-0.908v0c-0.156-0.071-0.247-0.104-0.275-0.099v0c-0.094 0.015-0.082 0.086 0.035 0.211v0c0.199 0.29 0.333 0.767 0.401 1.429 0.076 0.668 0.111 1.364 0.107 2.087-0.003 0.73-0.022 1.386-0.057 1.97-0.041 0.585-0.066 0.936-0.074 1.054v0c-0.096 0.463-0.154 1.026-0.175 1.69-0.027 0.672-0.006 1.212 0.061 1.62v0c-0.019 0.051-0.017 0.147 0.006 0.288 0.024 0.147 0.075 0.225 0.152 0.233v0c0.027-0.004 0.064-0.069 0.113-0.194 0.054-0.133 0.1-0.23 0.137-0.291v0c0.309-0.835 0.586-1.741 0.832-2.716 0.245-0.976 0.425-1.927 0.54-2.854zM125.055 18.642v0c0.03-0.445 0.095-1.027 0.197-1.745 0.102-0.718 0.163-1.454 0.183-2.207 0.027-0.754-0.018-1.486-0.135-2.196-0.116-0.703-0.355-1.258-0.719-1.666v0c-0.11-0.085-0.189-0.124-0.236-0.116v0c-0.054 0.009-0.059 0.061-0.015 0.157v0c0.15 0.911 0.189 1.771 0.116 2.581-0.079 0.811-0.178 1.608-0.297 2.391v0c-0.201 1.285-0.372 2.537-0.515 3.757-0.15 1.215-0.098 2.427 0.156 3.637v0c0.012 0.074 0.029 0.153 0.05 0.239 0.027 0.078 0.077 0.111 0.151 0.099v0c0.047-0.008 0.08-0.037 0.099-0.088 0.012-0.05 0.034-0.126 0.065-0.228v0c0.146-0.616 0.312-1.338 0.499-2.166 0.179-0.834 0.312-1.651 0.401-2.449zM123.564 25.491v0c-0.535-0.407-0.967-0.882-1.298-1.427-0.338-0.549-0.604-1.121-0.799-1.715-0.201-0.593-0.326-1.205-0.375-1.836-0.056-0.63-0.059-1.232-0.008-1.804v0c0.072-0.899 0.204-1.808 0.396-2.727 0.193-0.912 0.341-1.813 0.441-2.704 0.101-0.89 0.099-1.753-0.004-2.589-0.096-0.83-0.403-1.608-0.921-2.334v0c-0.087-0.109-0.144-0.162-0.171-0.158v0c-0.02 0.003-0.027 0.022-0.022 0.056 0.007 0.04 0.022 0.069 0.046 0.085v0c0.193 0.711 0.269 1.462 0.227 2.253-0.042 0.791-0.13 1.61-0.266 2.458-0.129 0.847-0.283 1.722-0.464 2.625-0.181 0.903-0.309 1.815-0.385 2.735v0c-0.06 0.677-0.065 1.355-0.015 2.035 0.057 0.678 0.21 1.334 0.459 1.967 0.25 0.64 0.618 1.225 1.105 1.757 0.48 0.533 1.12 0.995 1.92 1.386v0c0.055 0.039 0.12 0.059 0.196 0.061 0.075-0.005 0.054-0.047-0.062-0.124zM123.63 24.077v0c-0.105-0.175-0.221-0.4-0.349-0.675-0.135-0.274-0.247-0.54-0.338-0.801v0c-0.062-0.086-0.152-0.254-0.269-0.502-0.111-0.257-0.193-0.381-0.247-0.372v0c-0.094 0.015-0.144 0.11-0.149 0.282-0.013 0.174 0.002 0.388 0.044 0.643 0.042 0.254 0.106 0.516 0.191 0.783 0.079 0.269 0.17 0.491 0.275 0.667v0c0.22 0.459 0.45 0.768 0.69 0.928 0.232 0.154 0.525 0.264 0.879 0.33v0c0.159 0.049 0.273 0.069 0.34 0.057v0c0.027-0.004 0.03-0.026 0.01-0.063-0.019-0.031-0.038-0.045-0.058-0.042v0c-0.199-0.167-0.384-0.346-0.553-0.538-0.169-0.192-0.324-0.424-0.466-0.697zM123.369 5.044v0c-0.121 0.02-0.307 0.034-0.56 0.041-0.26 0.008-0.406-0.084-0.438-0.279v0c-0.012-0.074 0.08-0.182 0.276-0.324 0.197-0.142 0.412-0.336 0.647-0.581 0.227-0.251 0.421-0.554 0.582-0.911 0.161-0.357 0.2-0.786 0.118-1.289v0c-0.103-0.623-0.297-1.072-0.583-1.348v0c-0.065-0.058-0.138-0.125-0.219-0.201-0.087-0.068-0.119-0.118-0.097-0.149v0c0.047-0.008 0.103 0 0.169 0.024 0.067 0.03 0.112 0.054 0.135 0.07v0c0.526 0.188 0.948 0.47 1.264 0.844 0.324 0.38 0.517 0.761 0.581 1.142v0c0.126 0.763 0.048 1.416-0.235 1.958-0.276 0.534-0.823 0.868-1.64 1.003zM121.807 3.826v0c-0.268 0.168-0.424 0.121-0.467-0.139v0c-0.032-0.194 0.007-0.393 0.118-0.598 0.119-0.198 0.223-0.419 0.314-0.66 0.099-0.236 0.149-0.496 0.15-0.778 0.002-0.282-0.125-0.612-0.379-0.99v0c-0.067-0.113-0.172-0.23-0.316-0.35-0.145-0.127-0.195-0.205-0.152-0.233v0c0.042-0.035 0.146-0.034 0.31 0.001 0.171 0.034 0.282 0.06 0.332 0.079v0c0.433 0.121 0.785 0.359 1.057 0.713 0.264 0.349 0.419 0.667 0.467 0.955v0c0.075 0.455-0.047 0.861-0.367 1.216-0.325 0.363-0.681 0.625-1.067 0.784zM120.442 2.06v0c-0.02-0.121-0.006-0.264 0.043-0.43 0.042-0.165 0.146-0.261 0.313-0.289v0c0.121-0.02 0.23 0.041 0.33 0.183 0.099 0.142 0.159 0.273 0.178 0.394v0c0.017 0.1 0.001 0.234-0.047 0.4-0.048 0.166-0.133 0.259-0.254 0.279v0c-0.167 0.028-0.296-0.023-0.386-0.153-0.098-0.135-0.157-0.263-0.177-0.384z"
                                                            fill="#7c4e29"
                                                            data-fill-palette-color="primary"></path>
                                                        <path
                                                            d="M165.049 18.091v0c0.208-0.576 0.478-1.151 0.809-1.726 0.337-0.566 0.709-1.078 1.117-1.536 0.399-0.452 0.824-0.816 1.274-1.093 0.444-0.278 0.89-0.439 1.339-0.481v0c0.569-0.021 0.988 0.031 1.255 0.155 0.26 0.123 0.401 0.259 0.422 0.408v0c0.035 0.227-0.004 0.441-0.116 0.641-0.113 0.207-0.252 0.382-0.416 0.525-0.157 0.144-0.324 0.265-0.5 0.364-0.184 0.104-0.326 0.162-0.425 0.171v0c-0.129 0.025-0.179 0.074-0.151 0.149 0.02 0.08 0.128 0.113 0.324 0.1v0c0.225 0.013 0.457-0.031 0.696-0.133 0.24-0.108 0.47-0.253 0.689-0.433 0.219-0.181 0.398-0.387 0.536-0.617 0.14-0.237 0.223-0.487 0.25-0.751v0c0.002-0.276-0.084-0.526-0.257-0.75-0.165-0.23-0.383-0.418-0.653-0.563-0.27-0.146-0.586-0.251-0.946-0.317-0.354-0.064-0.698-0.068-1.032-0.011v0c-0.665 0.128-1.273 0.383-1.826 0.765-0.546 0.384-1.047 0.848-1.504 1.393-0.457 0.545-0.857 1.148-1.197 1.81-0.342 0.669-0.651 1.347-0.928 2.036v0c-0.348 0.854-0.566 1.711-0.653 2.571-0.079 0.855 0.078 1.566 0.472 2.134v0c0.19 0.283 0.47 0.506 0.84 0.67 0.364 0.163 0.76 0.279 1.189 0.35 0.436 0.065 0.888 0.065 1.355-0.003 0.466-0.06 0.911-0.176 1.336-0.347v0c0.102-0.03 0.187-0.063 0.256-0.098 0.069-0.036 0.082-0.071 0.04-0.107v0c-0.022-0.032-0.121-0.036-0.298-0.013v0c-1.221 0.075-2.147 0.028-2.778-0.141-0.639-0.164-1.061-0.461-1.266-0.892-0.205-0.43-0.226-0.996-0.064-1.698 0.167-0.694 0.438-1.538 0.811-2.532zM164.14 25.55v0c-0.753-0.185-1.436-0.564-2.049-1.137-0.614-0.567-0.991-1.207-1.13-1.922v0c-0.134-0.742-0.181-1.433-0.141-2.074 0.042-0.648 0.14-1.264 0.294-1.85v0c0.325-1.224 0.799-2.428 1.421-3.612 0.622-1.184 1.441-2.201 2.457-3.051v0c0.633-0.527 1.252-0.952 1.855-1.277 0.603-0.318 1.356-0.52 2.262-0.604v0c0.449-0.043 0.926-0.029 1.43 0.042 0.506 0.064 0.99 0.207 1.453 0.429 0.471 0.216 0.892 0.52 1.263 0.912 0.372 0.385 0.677 0.871 0.914 1.459v0c0.03 0.254 0.082 0.387 0.155 0.401v0c0.087-0.06 0.111-0.194 0.073-0.401v0c-0.009-0.788-0.286-1.466-0.831-2.033-0.552-0.569-1.241-0.991-2.067-1.265-0.826-0.274-1.712-0.39-2.658-0.348-0.944 0.036-1.813 0.278-2.605 0.728v0c-1.069 0.572-2.009 1.284-2.819 2.137-0.802 0.848-1.481 1.776-2.036 2.786-0.556 1.01-0.971 2.083-1.246 3.219-0.282 1.135-0.402 2.272-0.36 3.411v0c0.011 0.74 0.15 1.362 0.417 1.865 0.266 0.51 0.604 0.93 1.013 1.26 0.408 0.336 0.866 0.585 1.375 0.746 0.514 0.169 1.037 0.292 1.568 0.367v0c0.14 0.025 0.233 0.028 0.277 0.009 0.038-0.021 0.059-0.041 0.063-0.061v0c0.008-0.047-0.107-0.092-0.348-0.136zM162.912 16.41v0c-0.004 0.02-0.021 0.079-0.053 0.176-0.024 0.092-0.051 0.184-0.081 0.275-0.032 0.098-0.055 0.187-0.069 0.267-0.016 0.087 0 0.134 0.047 0.143v0c0.047 0.008 0.145-0.098 0.296-0.319 0.157-0.22 0.237-0.34 0.241-0.359v0c0.881-1.323 1.849-2.454 2.902-3.395v0c0.087-0.06 0.26-0.198 0.519-0.412 0.258-0.208 0.592-0.413 1.002-0.615 0.408-0.195 0.879-0.341 1.413-0.437 0.536-0.103 1.108-0.061 1.716 0.125v0c0.629 0.183 1.11 0.515 1.443 0.996 0.333 0.481 0.39 0.985 0.171 1.511v0c-0.189 0.511-0.453 0.918-0.79 1.222-0.346 0.31-0.66 0.501-0.943 0.574v0c-0.2 0.04-0.262 0.077-0.185 0.111 0.082 0.042 0.146 0.068 0.193 0.076v0c0.292 0.025 0.616-0.033 0.973-0.175 0.357-0.142 0.685-0.355 0.985-0.639 0.299-0.277 0.531-0.611 0.699-1.001 0.167-0.39 0.211-0.838 0.129-1.342v0c-0.096-0.535-0.297-0.985-0.603-1.35-0.306-0.366-0.661-0.651-1.066-0.856-0.403-0.211-0.825-0.357-1.265-0.436-0.447-0.081-0.831-0.113-1.152-0.096v0c-0.952 0.076-1.779 0.281-2.481 0.616-0.703 0.341-1.308 0.784-1.813 1.326-0.504 0.536-0.929 1.149-1.275 1.838-0.346 0.689-0.663 1.414-0.953 2.176zM168.978 24.204v0c0.119-0.123 0.176-0.209 0.171-0.259-0.004-0.056-0.03-0.081-0.079-0.076-0.049 0.005-0.123 0.029-0.22 0.073-0.091 0.046-0.162 0.074-0.213 0.086v0c-0.541 0.247-1.121 0.421-1.739 0.522-0.624 0.094-1.293 0.076-2.008-0.053v0c-0.361-0.065-0.762-0.266-1.205-0.602-0.441-0.342-0.772-0.668-0.992-0.976v0c-0.072-0.137-0.151-0.269-0.238-0.395-0.087-0.126-0.17-0.186-0.247-0.18v0c-0.112 0.083-0.136 0.217-0.073 0.401v0c0.209 0.9 0.566 1.52 1.07 1.86 0.505 0.333 1.068 0.556 1.689 0.668v0c0.361 0.065 0.733 0.085 1.117 0.058 0.391-0.026 0.771-0.084 1.139-0.176 0.376-0.097 0.721-0.228 1.033-0.392 0.319-0.163 0.584-0.349 0.795-0.559z"
                                                            fill="#7c4e29"
                                                            data-fill-palette-color="primary"></path>
                                                        <path
                                                            d="M214.962 35.144v0c0.399-0.521 0.764-1.105 1.096-1.753 0.336-0.653 0.551-1.311 0.647-1.973 0.102-0.659 0.034-1.3-0.202-1.924-0.236-0.624-0.718-1.153-1.445-1.588v0c-0.978-0.585-1.992-0.828-3.04-0.728-1.045 0.094-2.063 0.375-3.054 0.842-0.985 0.47-1.888 1.061-2.709 1.771-0.821 0.711-1.493 1.404-2.016 2.08v0c-0.722 0.928-1.254 1.785-1.596 2.568-0.342 0.784-0.529 1.486-0.561 2.108-0.028 0.616 0.082 1.152 0.33 1.609 0.245 0.463 0.597 0.832 1.058 1.108v0c0.636 0.404 1.427 0.628 2.373 0.672 0.946 0.044 1.943-0.095 2.99-0.417 1.041-0.326 2.096-0.853 3.165-1.582 1.078-0.731 2.066-1.662 2.964-2.793zM203.617 31.286v0c0.58-0.784 1.336-1.573 2.27-2.367 0.931-0.803 1.95-1.455 3.056-1.955 1.103-0.495 2.243-0.781 3.421-0.86 1.174-0.072 2.312 0.221 3.412 0.879v0c0.833 0.498 1.401 1.107 1.706 1.827 0.305 0.72 0.42 1.473 0.345 2.259-0.078 0.791-0.288 1.572-0.629 2.34-0.351 0.771-0.758 1.452-1.223 2.044v0c-1.091 1.387-2.237 2.469-3.437 3.246-1.204 0.782-2.391 1.326-3.561 1.63-1.17 0.304-2.268 0.394-3.294 0.271-1.035-0.121-1.925-0.404-2.67-0.85v0c-0.565-0.338-0.997-0.766-1.295-1.285-0.299-0.519-0.441-1.134-0.427-1.845 0.02-0.708 0.218-1.507 0.593-2.398 0.378-0.897 0.956-1.876 1.733-2.937zM204.486 37.784v0c-0.105-0.063-0.189-0.16-0.252-0.293-0.06-0.138-0.092-0.276-0.097-0.414-0.001-0.143 0.021-0.272 0.066-0.387 0.039-0.119 0.124-0.167 0.253-0.146v0c0.078 0.015 0.119 0.138 0.123 0.37 0.007 0.226 0.072 0.375 0.194 0.449v0c0.21 0.125 0.534 0.138 0.974 0.037 0.443-0.106 0.904-0.262 1.382-0.466 0.482-0.21 0.928-0.433 1.338-0.67 0.407-0.231 0.702-0.406 0.885-0.527v0c0.183-0.12 0.394-0.282 0.635-0.486 0.238-0.213 0.475-0.431 0.711-0.654 0.234-0.232 0.455-0.463 0.664-0.694 0.206-0.225 0.375-0.428 0.508-0.61v0c0.662-0.869 1.074-1.603 1.235-2.202 0.161-0.6 0.076-0.999-0.257-1.198v0c-0.25-0.15-0.557-0.226-0.918-0.229-0.368-0.007-0.746 0.044-1.135 0.152-0.389 0.108-0.767 0.257-1.134 0.448-0.368 0.191-0.687 0.415-0.959 0.671v0c-0.317 0.293-0.496 0.427-0.537 0.403v0c-0.058-0.035 0.019-0.23 0.231-0.586v0c0.295-0.361 0.663-0.671 1.102-0.93 0.44-0.259 0.904-0.447 1.394-0.565 0.496-0.115 0.989-0.16 1.481-0.135 0.497 0.028 0.943 0.161 1.339 0.398v0c0.396 0.237 0.608 0.557 0.635 0.962 0.031 0.398-0.035 0.825-0.197 1.281-0.159 0.451-0.373 0.888-0.643 1.312-0.26 0.422-0.488 0.744-0.685 0.966v0c-0.416 0.51-0.872 0.981-1.367 1.412-0.498 0.422-1.034 0.829-1.608 1.221v0c-0.272 0.177-0.641 0.371-1.108 0.583-0.47 0.217-0.964 0.396-1.483 0.536-0.525 0.137-1.039 0.217-1.543 0.239-0.51 0.019-0.919-0.063-1.227-0.248zM205.126 38.974v0c-0.053 0.142-0.215 0.188-0.485 0.136-0.27-0.051-0.519-0.144-0.746-0.28v0c-0.636-0.404-1.007-0.907-1.114-1.508-0.107-0.602-0.065-1.213 0.125-1.835 0.19-0.622 0.465-1.22 0.826-1.796 0.354-0.579 0.673-1.052 0.956-1.42v0c0.493-0.638 1.12-1.311 1.883-2.017 0.759-0.7 1.591-1.29 2.494-1.77 0.91-0.476 1.848-0.769 2.815-0.878 0.976-0.112 1.922 0.106 2.836 0.653v0c0.606 0.362 0.995 0.809 1.168 1.339 0.182 0.528 0.223 1.075 0.122 1.639-0.095 0.568-0.286 1.126-0.574 1.673-0.282 0.551-0.586 1.025-0.911 1.424v0c-0.326 0.453-0.661 0.846-1.002 1.18-0.342 0.333-0.749 0.683-1.221 1.049v0c-0.151 0.107-0.337 0.226-0.557 0.355-0.216 0.124-0.379 0.137-0.487 0.041v0c-0.054-0.056-0.022-0.148 0.094-0.276 0.122-0.125 0.275-0.282 0.461-0.472 0.185-0.19 0.378-0.387 0.579-0.591 0.207-0.2 0.385-0.399 0.533-0.594v0c0.25-0.325 0.541-0.752 0.873-1.281 0.323-0.526 0.588-1.068 0.794-1.625 0.203-0.551 0.286-1.079 0.248-1.583-0.038-0.505-0.304-0.906-0.8-1.202v0c-0.734-0.439-1.547-0.606-2.441-0.5-0.896 0.097-1.773 0.347-2.631 0.751-0.864 0.4-1.657 0.887-2.38 1.458-0.722 0.572-1.284 1.122-1.686 1.649v0c-0.239 0.308-0.5 0.717-0.782 1.228-0.276 0.515-0.494 1.057-0.653 1.626-0.159 0.569-0.187 1.126-0.085 1.669 0.105 0.538 0.422 0.98 0.95 1.327v0c0.149 0.121 0.318 0.202 0.506 0.244 0.189 0.042 0.286 0.104 0.292 0.187z"
                                                            fill="#7c4e29"
                                                            data-fill-palette-color="primary"></path>
                                                        <path
                                                            d="M250.581 67.804v0c-0.887 0.317-1.78 0.571-2.68 0.761-0.894 0.186-1.802 0.36-2.723 0.523v0c-0.067-0.009-0.204 0.003-0.411 0.035-0.203 0.037-0.309 0.011-0.316-0.077v0c-0.029-0.038 0.02-0.097 0.146-0.177 0.121-0.076 0.211-0.138 0.27-0.183v0c0.168-0.104 0.421-0.232 0.759-0.382 0.34-0.16 0.701-0.319 1.085-0.479 0.387-0.154 0.762-0.302 1.123-0.444 0.367-0.147 0.657-0.26 0.87-0.339v0c1.289-0.474 2.374-0.974 3.254-1.5 0.88-0.526 1.518-1.11 1.914-1.752v0c0.068-0.112 0.116-0.15 0.145-0.112v0c0.029 0.038 0.039 0.09 0.031 0.156-0.009 0.067-0.015 0.119-0.02 0.158v0c-0.069 0.388-0.228 0.786-0.479 1.194-0.25 0.408-0.541 0.787-0.871 1.137-0.33 0.35-0.686 0.655-1.067 0.916-0.382 0.261-0.725 0.449-1.03 0.565zM253.254 66.984v0c-0.19 0.542-0.578 1.027-1.165 1.455-0.596 0.427-1.248 0.815-1.956 1.165-0.707 0.35-1.411 0.65-2.11 0.899-0.699 0.249-1.25 0.452-1.652 0.61v0c-0.783 0.297-1.608 0.566-2.476 0.808-0.868 0.242-1.626 0.443-2.275 0.602v0c-0.23 0.058-0.349 0.06-0.357 0.006v0c-0.03-0.071-0.012-0.137 0.054-0.196 0.056-0.061 0.103-0.105 0.141-0.135v0c1.036-0.801 2.148-1.426 3.337-1.874 1.193-0.443 2.411-0.87 3.654-1.283v0c0.795-0.281 1.573-0.578 2.335-0.892 0.76-0.305 1.512-0.745 2.258-1.323v0c0.134-0.104 0.216-0.137 0.245-0.099v0c0.012 0.016 0.014 0.045 0.003 0.087-0.01 0.042-0.022 0.099-0.036 0.17zM239.761 68.208v0c-0.026 0.089-0.166 0.09-0.421 0.005-0.246-0.085-0.4-0.145-0.463-0.183v0c-0.962-0.611-1.479-1.263-1.55-1.954-0.081-0.692 0.089-1.365 0.511-2.017 0.421-0.643 0.983-1.236 1.686-1.78 0.698-0.54 1.355-0.988 1.971-1.345v0c0.523-0.311 1.14-0.612 1.849-0.903 0.714-0.286 1.444-0.534 2.192-0.744 0.742-0.205 1.472-0.349 2.189-0.432 0.722-0.087 1.352-0.06 1.89 0.082v0c0.045 0.025 0.105 0.047 0.18 0.066 0.08 0.015 0.135 0.041 0.165 0.079v0c0.024 0.076-0.106 0.129-0.391 0.161v0c-0.28 0.037-0.657 0.105-1.129 0.204-0.468 0.105-0.994 0.246-1.578 0.423-0.584 0.177-1.19 0.376-1.817 0.595-0.624 0.225-1.223 0.483-1.797 0.772v0c-0.574 0.29-1.106 0.594-1.597 0.914-0.491 0.32-0.918 0.621-1.283 0.903-0.365 0.282-0.665 0.527-0.899 0.734-0.236 0.217-0.385 0.362-0.448 0.437v0c-0.488 0.6-0.728 1.194-0.72 1.78 0.012 0.592 0.321 1.158 0.929 1.7v0c0.017 0.021 0.11 0.104 0.281 0.246 0.17 0.143 0.254 0.228 0.25 0.257zM240.417 73.647v0c-0.017 0.133-0.044 0.214-0.082 0.244v0c-0.038 0.029-0.082-0.006-0.132-0.104-0.045-0.102-0.074-0.179-0.087-0.229v0c-0.04-0.218-0.077-0.498-0.11-0.841-0.039-0.339 0.08-0.706 0.358-1.101v0c0.11-0.179 0.269-0.362 0.476-0.549 0.203-0.192 0.402-0.362 0.595-0.512 0.193-0.149 0.366-0.253 0.519-0.311 0.153-0.058 0.244-0.051 0.273 0.02v0c0.008 0.054-0.048 0.166-0.166 0.335-0.113 0.165-0.241 0.332-0.383 0.502v0c-0.186 0.204-0.347 0.406-0.484 0.606-0.137 0.2-0.27 0.411-0.4 0.631v0c-0.14 0.263-0.234 0.49-0.283 0.683-0.049 0.192-0.08 0.401-0.094 0.626zM239.954 69.771v0c-0.494 0.039-1.073-0.028-1.738-0.2-0.67-0.168-1.288-0.617-1.853-1.346v0c-0.448-0.58-0.678-1.192-0.687-1.837-0.014-0.65 0.108-1.285 0.366-1.905 0.262-0.615 0.626-1.188 1.09-1.718 0.469-0.526 0.952-0.981 1.452-1.368v0c0.624-0.457 1.278-0.882 1.962-1.273 0.682-0.382 1.346-0.711 1.991-0.987 0.649-0.27 1.256-0.478 1.821-0.624 0.565-0.146 1.057-0.226 1.474-0.24v0c0.045 0.025 0.121 0.035 0.229 0.029 0.102-0.002 0.148 0.031 0.14 0.098v0c0.001 0.034-0.047 0.062-0.141 0.083-0.085 0.023-0.158 0.04-0.218 0.052v0c-0.707 0.273-1.445 0.578-2.213 0.915-0.767 0.328-1.516 0.697-2.246 1.107-0.725 0.415-1.405 0.868-2.038 1.358-0.633 0.49-1.175 0.999-1.624 1.527v0c-0.307 0.358-0.534 0.757-0.683 1.197-0.152 0.435-0.24 0.855-0.262 1.258-0.028 0.408 0.018 0.788 0.137 1.143 0.125 0.35 0.31 0.644 0.555 0.883v0c0.503 0.495 0.987 0.794 1.453 0.897 0.46 0.107 0.907 0.092 1.341-0.047 0.434-0.138 0.857-0.345 1.27-0.622 0.417-0.271 0.849-0.533 1.297-0.785v0c-0.343 0.111-0.751 0.127-1.225 0.047-0.474-0.08-0.905-0.222-1.295-0.426-0.39-0.205-0.69-0.465-0.902-0.783-0.212-0.308-0.215-0.666-0.008-1.075v0c0.279-0.516 0.659-0.978 1.142-1.385 0.487-0.402 1.04-0.813 1.659-1.233v0c0.625-0.423 1.306-0.813 2.043-1.168 0.737-0.356 1.488-0.645 2.252-0.867 0.764-0.222 1.528-0.376 2.293-0.462 0.76-0.082 1.5-0.079 2.22 0.008v0l0.2 0.025c0.105 0.013 0.18 0.05 0.225 0.109v0c0 0-0.128 0.034-0.383 0.103v0c-1.464 0.249-2.898 0.607-4.302 1.077-1.395 0.47-2.69 1.103-3.885 1.899v0c-1.325 0.871-2.093 1.564-2.304 2.078-0.212 0.524-0.113 0.885 0.297 1.083 0.42 0.199 1.049 0.274 1.887 0.226 0.838-0.048 1.663-0.201 2.475-0.46v0c0.736-0.235 1.504-0.468 2.302-0.701 0.8-0.241 1.59-0.501 2.371-0.778 0.776-0.283 1.504-0.601 2.182-0.955 0.679-0.354 1.256-0.761 1.731-1.223v0c0.091-0.071 0.151-0.087 0.18-0.05v0c0.017 0.021 0.017 0.038 0.001 0.051v0c-0.038 0.029-0.05 0.052-0.038 0.068v0c-0.005 0.038-0.015 0.063-0.031 0.075v0c-0.418 0.813-0.973 1.465-1.665 1.958-0.696 0.487-1.467 0.899-2.312 1.236-0.85 0.332-1.743 0.636-2.678 0.913-0.931 0.283-1.836 0.61-2.716 0.982v0c-0.553 0.239-1.102 0.527-1.649 0.863-0.556 0.335-1.068 0.715-1.538 1.139-0.47 0.424-0.864 0.896-1.182 1.416-0.314 0.526-0.499 1.068-0.556 1.627v0c-0.01 0.076-0.023 0.12-0.039 0.133v0c-0.038 0.029-0.072 0.017-0.104-0.035-0.027-0.057-0.046-0.115-0.058-0.174v0c-0.144-0.463-0.169-0.95-0.075-1.461 0.098-0.505 0.301-0.997 0.609-1.475z"
                                                            fill="#7c4e29"
                                                            data-fill-palette-color="primary"></path>
                                                        <path
                                                            d="M270.476 104.184v0c0.22-0.044 0.491-0.051 0.812-0.019 0.328 0.03 0.655 0.106 0.982 0.228 0.325 0.116 0.639 0.28 0.944 0.495 0.304 0.214 0.544 0.482 0.718 0.805v0c0.359 0.707 0.498 1.339 0.415 1.895-0.089 0.558-0.248 1.009-0.478 1.353v0c-0.108 0.138-0.178 0.198-0.212 0.18v0c-0.059-0.032-0.07-0.117-0.034-0.256v0c0.05-0.164 0.064-0.416 0.041-0.755-0.021-0.333-0.105-0.673-0.251-1.019-0.141-0.355-0.356-0.673-0.646-0.955-0.283-0.284-0.667-0.467-1.151-0.549v0c-0.444-0.066-0.889-0.072-1.333-0.018-0.438 0.052-0.84 0.126-1.208 0.222-0.36 0.1-0.663 0.198-0.911 0.293-0.252 0.104-0.424 0.169-0.516 0.196v0c-0.24 0.121-0.547 0.255-0.921 0.402-0.372 0.153-0.756 0.289-1.153 0.407-0.397 0.118-0.791 0.221-1.182 0.31-0.39 0.095-0.735 0.148-1.036 0.16v0c-0.073-0.007-0.199-0.001-0.377 0.016-0.172 0.016-0.266-0.002-0.282-0.054v0c-0.035-0.117 0.029-0.2 0.192-0.248 0.169-0.05 0.286-0.085 0.351-0.105v0c0.572-0.22 1.136-0.477 1.693-0.769 0.559-0.287 1.137-0.58 1.735-0.879 0.593-0.29 1.202-0.553 1.826-0.788 0.63-0.237 1.291-0.42 1.982-0.548zM263.206 105.022v0c0.474-0.12 1.122-0.359 1.942-0.716 0.814-0.356 1.785-0.688 2.912-0.995v0c0.585-0.153 1.2-0.273 1.847-0.359 0.645-0.093 1.321-0.057 2.029 0.107v0c0.763 0.183 1.384 0.512 1.865 0.984 0.483 0.479 0.776 0.93 0.881 1.353v0c0.021 0.072 0.043 0.143 0.064 0.214 0.019 0.065 0.016 0.101-0.01 0.109v0c-0.046 0.014-0.065 0.009-0.058-0.014-0.001-0.028-0.045-0.103-0.131-0.227v0c-0.243-0.388-0.546-0.705-0.91-0.95-0.364-0.246-0.752-0.431-1.164-0.556-0.421-0.13-0.838-0.211-1.251-0.244-0.411-0.026-0.774-0.007-1.087 0.059v0c-1.322 0.245-2.433 0.59-3.335 1.036v0c-0.733 0.346-1.501 0.677-2.306 0.995-0.807 0.311-1.573 0.508-2.299 0.589-0.722 0.073-1.364-0.004-1.928-0.233-0.562-0.222-0.976-0.697-1.242-1.425v0c-0.021-0.072-0.041-0.161-0.059-0.269-0.018-0.108-0.004-0.169 0.041-0.182v0c0.046-0.014 0.158 0.066 0.337 0.239v0c0.46 0.522 0.984 0.794 1.571 0.817 0.589 0.03 1.353-0.081 2.291-0.332zM257.997 102.548v0c-0.417 0.478-0.643 1.109-0.679 1.892-0.029 0.781 0.241 1.617 0.811 2.509v0c0.282 0.447 0.654 0.804 1.116 1.07 0.457 0.275 0.939 0.467 1.446 0.578 0.503 0.119 1.004 0.172 1.502 0.158 0.507-0.009 0.963-0.06 1.368-0.153v0c0.656-0.174 1.288-0.384 1.894-0.628 0.613-0.246 1.204-0.497 1.773-0.751 0.567-0.261 1.121-0.504 1.663-0.729 0.542-0.225 1.086-0.394 1.633-0.508v0c0.594-0.12 1.086-0.086 1.475 0.102 0.381 0.184 0.674 0.468 0.881 0.853 0.2 0.386 0.298 0.821 0.293 1.304-0.013 0.478-0.113 0.951-0.3 1.418v0c-0.018 0.105-0.067 0.155-0.147 0.149v0c-0.046 0.014-0.062-0.006-0.049-0.059 0.006-0.051 0.015-0.104 0.027-0.157v0c0.024-0.942-0.094-1.636-0.355-2.082-0.259-0.44-0.755-0.575-1.49-0.406v0c-0.853 0.204-1.815 0.562-2.889 1.073-1.081 0.506-2.315 0.941-3.7 1.304v0c-0.454 0.164-1.003 0.27-1.647 0.321-0.644 0.05-1.294 0.017-1.951-0.099-0.653-0.124-1.271-0.358-1.855-0.7-0.586-0.35-1.034-0.832-1.345-1.448v0c-0.555-1.173-0.779-2.175-0.673-3.007 0.115-0.827 0.458-1.506 1.029-2.038v0c0.13-0.088 0.204-0.135 0.223-0.141v0l0.012 0.039c0 0-0.022 0.045-0.066 0.137zM258.454 104.08v0c0.015 0.477 0.125 1.025 0.33 1.644v0c0.09 0.207 0.225 0.446 0.405 0.718 0.182 0.279 0.253 0.434 0.214 0.467v0c-0.07 0.099-0.207 0.065-0.413-0.1-0.199-0.167-0.399-0.401-0.602-0.702-0.201-0.294-0.372-0.608-0.514-0.941-0.137-0.342-0.195-0.643-0.173-0.904v0c0.057-0.498 0.167-0.878 0.329-1.139 0.163-0.261 0.383-0.521 0.66-0.781v0l0.113-0.119c0.084-0.075 0.14-0.102 0.167-0.081v0c0.032 0.012 0.042 0.048 0.032 0.107v0c-0.014 0.025-0.034 0.042-0.059 0.05v0c-0.17 0.355-0.291 0.653-0.361 0.893-0.072 0.234-0.115 0.53-0.128 0.888z"
                                                            fill="#7c4e29"
                                                            data-fill-palette-color="primary"></path>
                                                        <path
                                                            d="M12.233 144.006c0-1.765 1.431-3.196 3.196-3.197 1.765 0 3.196 1.431 3.196 3.197 0 1.765-1.431 3.196-3.196 3.196-1.765 0-3.196-1.431-3.196-3.196z"
                                                            fill="#7c4e29"
                                                            data-fill-palette-color="primary"></path>
                                                        <path
                                                            d="M268.499 144.006c0-1.765 1.431-3.196 3.196-3.197 1.765 0 3.196 1.431 3.197 3.197 0 1.765-1.431 3.196-3.197 3.196-1.765 0-3.196-1.431-3.196-3.196z"
                                                            fill="#7c4e29"
                                                            data-fill-palette-color="primary"></path>
                                                    </g>
                                                    <g id="text-1">
                                                        <path
                                                            d="M29.186 192.75v0c-0.079-0.001-0.183-0.008-0.31-0.021-0.135-0.017-0.276-0.04-0.422-0.067-0.144-0.021-0.267-0.054-0.369-0.098-0.106-0.035-0.15-0.07-0.133-0.104v0c0 0 0.059-0.006 0.176-0.019 0.122-0.021 0.257-0.036 0.405-0.044 0.146-0.015 0.285-0.028 0.418-0.039 0.133-0.011 0.222-0.024 0.267-0.039v0c1.919-0.291 3.468-0.834 4.649-1.629 1.183-0.789 2.051-1.729 2.604-2.822 0.548-1.084 0.822-2.273 0.821-3.566-0.003-1.301-0.214-2.593-0.635-3.876v0c-0.323-0.922-0.713-1.799-1.171-2.632-0.459-0.839-0.929-1.584-1.408-2.235-0.478-0.645-0.94-1.174-1.386-1.586-0.446-0.412-0.815-0.642-1.105-0.691v0c-0.325-0.066-0.309-0.122 0.049-0.168v0c0.646-0.025 1.351 0.264 2.115 0.866 0.765 0.602 1.485 1.364 2.16 2.285 0.675 0.921 1.262 1.931 1.762 3.028 0.5 1.098 0.798 2.144 0.894 3.138v0c0.079 0.656 0.099 1.328 0.06 2.018-0.03 0.694-0.122 1.377-0.275 2.048-0.159 0.674-0.398 1.326-0.717 1.956-0.321 0.623-0.74 1.201-1.258 1.735v0c-1.004 1.035-2.151 1.771-3.443 2.209-1.292 0.438-2.541 0.556-3.748 0.353zM30.184 194.86v0c-1.406 0.011-2.735-0.16-3.987-0.512-1.261-0.356-2.43-0.799-3.507-1.328-1.083-0.526-2.066-1.113-2.947-1.761-0.881-0.648-1.654-1.272-2.317-1.874v0c-0.187-0.186-0.343-0.344-0.468-0.472-0.12-0.138-0.158-0.214-0.113-0.23v0c0.004-0.052 0.096-0.012 0.279 0.118 0.186 0.122 0.378 0.249 0.575 0.381v0c1.445 0.903 2.935 1.747 4.469 2.533 1.54 0.783 3.192 1.395 4.957 1.833v0c0.9 0.209 1.839 0.283 2.817 0.221 0.969-0.066 1.924-0.264 2.866-0.594 0.941-0.33 1.828-0.784 2.661-1.364 0.832-0.579 1.545-1.275 2.138-2.086v0c0.78-1.079 1.294-2.237 1.543-3.475 0.245-1.229 0.282-2.468 0.111-3.717-0.171-1.249-0.519-2.475-1.041-3.68-0.523-1.205-1.154-2.318-1.893-3.338v0c-0.108-0.164-0.177-0.258-0.207-0.284-0.039-0.029-0.04-0.062-0.001-0.096v0c0.036-0.041 0.092-0.025 0.168 0.049 0.076 0.074 0.149 0.138 0.219 0.193v0c0.442 0.399 0.912 0.95 1.409 1.652 0.5 0.709 0.949 1.548 1.345 2.517 0.39 0.971 0.673 2.054 0.848 3.251 0.184 1.201 0.171 2.478-0.038 3.832v0c-0.239 1.472-0.755 2.731-1.545 3.777-0.793 1.04-1.686 1.889-2.679 2.545-0.995 0.65-2.009 1.132-3.042 1.444-1.034 0.312-1.907 0.467-2.62 0.465zM13.517 184.262v0c0.139-0.178 0.375-0.419 0.706-0.722 0.339-0.306 0.761-0.598 1.268-0.876v0c0.253-0.139 0.544-0.273 0.873-0.403 0.335-0.132 0.657-0.238 0.968-0.317 0.308-0.086 0.572-0.143 0.792-0.17 0.214-0.025 0.337 0.008 0.369 0.097v0c0.009 0.026-0.042 0.076-0.153 0.151-0.11 0.075-0.239 0.159-0.385 0.253-0.142 0.086-0.285 0.161-0.428 0.226-0.145 0.058-0.25 0.098-0.314 0.121v0c-0.567 0.249-1.124 0.527-1.671 0.833-0.547 0.307-1.055 0.654-1.523 1.041v0c1.237 0.451 2.525 1.01 3.866 1.676 1.339 0.66 2.69 1.294 4.054 1.902 1.355 0.604 2.711 1.118 4.067 1.541 1.354 0.417 2.667 0.604 3.939 0.561v0c0.875-0.026 1.713-0.262 2.513-0.708 0.8-0.446 1.472-1.001 2.016-1.666v0c0.529-0.667 0.879-1.473 1.051-2.418 0.175-0.938 0.187-1.91 0.036-2.914v0c-0.071-0.407-0.149-0.804-0.234-1.19-0.083-0.381-0.195-0.773-0.336-1.177v0c-0.311 0.181-0.662 0.347-1.055 0.499-0.386 0.15-0.776 0.279-1.169 0.388-0.385 0.113-0.758 0.208-1.12 0.285-0.368 0.079-0.699 0.13-0.992 0.153v0c-1.32 0.11-2.667 0.165-4.041 0.165-1.371 0.006-2.7-0.032-3.987-0.113v0c-0.08-0.022-0.207-0.046-0.381-0.072-0.174-0.025-0.269-0.06-0.285-0.105v0c-0.016-0.045 0.066-0.099 0.245-0.161 0.179-0.063 0.308-0.097 0.385-0.103v0c0.278-0.069 0.624-0.139 1.037-0.212 0.415-0.066 0.838-0.132 1.268-0.196 0.43-0.065 0.86-0.121 1.289-0.171 0.422-0.047 0.783-0.073 1.083-0.078v0c0.15-0.002 0.507-0.03 1.071-0.084 0.555-0.058 1.192-0.137 1.912-0.238 0.72-0.101 1.479-0.223 2.277-0.367 0.794-0.134 1.513-0.289 2.156-0.464v0l-0.145-0.413c-0.887 0.26-1.826 0.453-2.817 0.577-0.994 0.118-2.004 0.202-3.029 0.253-1.027 0.044-2.065 0.08-3.112 0.108-1.056 0.025-2.093 0.09-3.113 0.196v0c-0.214 0.025-0.581 0.085-1.101 0.181-0.52 0.096-1.099 0.23-1.736 0.403-0.631 0.171-1.288 0.376-1.974 0.616-0.685 0.24-1.319 0.516-1.899 0.827-0.579 0.318-1.079 0.666-1.501 1.044-0.424 0.371-0.671 0.785-0.74 1.241zM29.238 191.298v0c-1.338-0.085-2.697-0.371-4.076-0.859-1.379-0.488-2.745-1.062-4.099-1.724-1.351-0.655-2.663-1.361-3.934-2.116-1.269-0.749-2.461-1.421-3.575-2.016v0c-0.217-0.125-0.312-0.347-0.287-0.665 0.023-0.324 0.101-0.585 0.232-0.783v0c0.462-0.694 1.047-1.291 1.757-1.791 0.703-0.498 1.469-0.917 2.298-1.258 0.823-0.339 1.685-0.608 2.586-0.809 0.901-0.2 1.789-0.343 2.666-0.427v0c2.021-0.205 4-0.323 5.937-0.354 1.935-0.038 3.738-0.199 5.408-0.482v0c-0.559-1.163-1.213-2.149-1.964-2.958-0.751-0.808-1.472-1.267-2.165-1.377v0c-0.045 0.016-0.073 0.008-0.084-0.024-0.013-0.038 0.077-0.067 0.272-0.085v0c0.693-0.034 1.391 0.214 2.094 0.744 0.706 0.537 1.355 1.24 1.948 2.111 0.595 0.877 1.109 1.862 1.542 2.955 0.435 1.099 0.747 2.205 0.936 3.317v0c0.203 1.216 0.119 2.36-0.254 3.433-0.363 1.077-0.903 2.01-1.618 2.8-0.722 0.792-1.571 1.406-2.547 1.841-0.985 0.431-2.009 0.607-3.073 0.527zM34.35 181.385v0c-0.489 0.473-1.217 0.847-2.185 1.121-0.962 0.272-1.986 0.487-3.074 0.646-1.09 0.152-2.154 0.266-3.192 0.342-1.031 0.074-1.862 0.145-2.491 0.215v0c-1.17 0.108-2.361 0.158-3.572 0.151-1.211-0.007-2.262 0.009-3.154 0.048v0c-0.354-0.005-0.539-0.03-0.555-0.075v0c-0.022-0.064 0.027-0.117 0.149-0.16 0.122-0.043 0.24-0.084 0.356-0.125v0c1.681-0.517 3.402-0.85 5.161-0.999 1.76-0.149 3.559-0.269 5.397-0.36v0c1.109-0.058 2.261-0.145 3.456-0.262 1.189-0.115 2.4-0.363 3.633-0.744v0c0.154-0.054 0.251-0.063 0.293-0.027v0c0.007 0.019-0.021 0.054-0.082 0.104-0.057 0.042-0.104 0.083-0.14 0.125zM21.782 190.275v0c-0.017 0.035-0.122 0.021-0.316-0.04-0.198-0.053-0.419-0.13-0.663-0.232-0.253-0.106-0.504-0.208-0.755-0.307-0.25-0.099-0.42-0.173-0.509-0.221v0c-0.638-0.301-1.281-0.608-1.93-0.92-0.651-0.318-1.236-0.674-1.754-1.068v0l-2.985-2.362c-0.035-0.038-0.079-0.091-0.131-0.159-0.046-0.07-0.067-0.131-0.064-0.183v0c0.01-0.054 0.04-0.082 0.088-0.085 0.047-0.009 0.098-0.009 0.152 0.001v0c0.052 0.004 0.108 0.02 0.168 0.049v0c0.404 0.29 0.891 0.605 1.463 0.944 0.574 0.345 1.165 0.699 1.774 1.061v0c0.423 0.283 0.95 0.609 1.583 0.977 0.632 0.368 1.239 0.734 1.819 1.099 0.581 0.365 1.077 0.683 1.489 0.956 0.41 0.266 0.6 0.43 0.571 0.49z"
                                                            fill="#7c4e29"
                                                            data-fill-palette-color="primary"></path>
                                                        <path
                                                            d="M56.312 230.085v0c-0.049 0.3-0.167 0.609-0.356 0.926-0.198 0.317-0.458 0.607-0.778 0.869-0.33 0.262-0.716 0.483-1.157 0.664-0.451 0.179-0.953 0.282-1.507 0.307v0c-1.063 0.029-2.034-0.113-2.912-0.426-0.869-0.312-1.528-0.717-1.979-1.216v0c-0.269-0.297-0.216-0.345 0.158-0.143v0c0.196 0.115 0.452 0.231 0.769 0.348 0.316 0.117 0.669 0.223 1.057 0.319 0.389 0.096 0.813 0.165 1.273 0.208 0.459 0.052 0.935 0.046 1.428-0.016v0c0.812-0.094 1.481-0.32 2.008-0.678 0.523-0.363 0.795-0.78 0.819-1.25v0c0.02-0.403-0.085-0.756-0.315-1.06-0.23-0.304-0.766-0.588-1.608-0.851v0c-0.766-0.24-1.555-0.363-2.367-0.37-0.802-0.006-1.609 0.038-2.421 0.132v0c-0.424 0.027-0.664 0.01-0.718-0.05-0.055-0.06 0.124-0.181 0.537-0.363v0c0.805-0.344 1.642-0.567 2.512-0.668 0.875-0.105 1.735-0.06 2.581 0.136v0c0.622 0.151 1.131 0.34 1.528 0.566 0.402 0.231 0.715 0.492 0.941 0.782 0.235 0.29 0.391 0.594 0.467 0.909 0.076 0.316 0.089 0.624 0.04 0.925zM55.755 233.185v0c-0.486 0.312-0.944 0.525-1.372 0.638-0.428 0.113-0.825 0.17-1.191 0.171-0.37-0.004-0.702-0.042-0.996-0.114-0.289-0.077-0.55-0.138-0.784-0.183v0c-0.119-0.02-0.177-0.064-0.173-0.131 0.003-0.067 0.091-0.096 0.264-0.088v0c0.549 0.08 1.197 0.079 1.946-0.004 0.739-0.083 1.39-0.361 1.951-0.833v0c0.936-0.847 1.443-1.723 1.521-2.627v0c0.079-0.904-0.224-1.673-0.908-2.308-0.68-0.63-1.596-1.1-2.748-1.412v0c-0.725-0.204-1.45-0.307-2.175-0.31-0.725-0.002-1.43 0.068-2.115 0.212-0.694 0.143-1.353 0.346-1.976 0.608-0.628 0.267-1.211 0.579-1.748 0.936v0c-0.522 0.344-1.079 0.725-1.671 1.143-0.583 0.418-1.101 0.887-1.554 1.407-0.454 0.53-0.796 1.138-1.028 1.823-0.221 0.686-0.246 1.463-0.072 2.331v0c0.027 0.131 0.076 0.256 0.147 0.375 0.071 0.109 0.097 0.173 0.077 0.191v0c-0.035 0.032-0.099 0.007-0.191-0.074-0.087-0.076-0.161-0.183-0.222-0.321v0c-0.31-0.525-0.468-1.063-0.475-1.617-0.001-0.557 0.086-1.094 0.26-1.608 0.179-0.51 0.414-0.993 0.707-1.45 0.292-0.456 0.587-0.838 0.885-1.145v0c1.298-1.367 2.847-2.417 4.647-3.149v0c0.377-0.149 0.817-0.3 1.319-0.453 0.507-0.148 1.053-0.262 1.639-0.344 0.585-0.081 1.199-0.111 1.842-0.088 0.652 0.023 1.3 0.127 1.945 0.312v0c0.611 0.179 1.18 0.433 1.706 0.763 0.522 0.333 0.978 0.721 1.369 1.163 0.391 0.452 0.686 0.94 0.886 1.464 0.2 0.524 0.286 1.069 0.257 1.634v0c-0.04 0.522-0.214 1.058-0.519 1.61-0.306 0.542-0.789 1.035-1.45 1.478zM54.526 229.917v0c-0.055 0.434-0.413 0.808-1.072 1.121-0.669 0.313-1.529 0.419-2.581 0.319v0c-0.584-0.048-1.105-0.139-1.565-0.273-0.459-0.133-0.967-0.365-1.522-0.695v0c-0.842 0.415-1.615 0.89-2.319 1.427-0.695 0.537-1.207 1.033-1.537 1.487v0c-0.138 0.161-0.239 0.358-0.303 0.591-0.064 0.232-0.053 0.478 0.035 0.736 0.093 0.254 0.284 0.526 0.572 0.814 0.289 0.279 0.722 0.56 1.299 0.843v0c0.16 0.075 0.238 0.137 0.236 0.185 0.002 0.053-0.106 0.05-0.324-0.009v0c-0.533-0.094-1.007-0.273-1.422-0.539-0.419-0.271-0.75-0.575-0.992-0.914-0.243-0.339-0.376-0.699-0.401-1.08-0.024-0.381 0.08-0.741 0.313-1.079v0c0.491-0.701 1.081-1.344 1.768-1.93 0.683-0.591 1.435-1.089 2.258-1.495 0.818-0.401 1.668-0.691 2.551-0.868 0.883-0.177 1.758-0.191 2.626-0.042v0c1.62 0.263 2.414 0.73 2.38 1.401zM45.858 237.283v0c-0.285 0.039-0.598 0.042-0.937 0.012-0.335-0.036-0.674-0.113-1.019-0.231-0.345-0.118-0.679-0.264-1.002-0.439-0.318-0.179-0.597-0.402-0.839-0.669v0c-0.414-0.458-0.699-0.974-0.853-1.548-0.159-0.58-0.024-1.255 0.404-2.027v0c0.039-0.099 0.088-0.176 0.148-0.231 0.06-0.055 0.106-0.064 0.139-0.029v0c0.099 0.039 0.14 0.129 0.123 0.273-0.012 0.139-0.031 0.284-0.058 0.437v0c-0.053 0.396-0.027 0.83 0.08 1.301 0.102 0.466 0.28 0.84 0.535 1.122v0c0.478 0.528 0.971 0.915 1.477 1.162 0.512 0.242 1.058 0.42 1.638 0.535v0c0.137 0.04 0.281 0.093 0.432 0.158 0.16 0.066 0.071 0.124-0.268 0.174zM53.236 229.932v0c0.077-0.198-0.266-0.35-1.03-0.455v0c-0.686-0.121-1.342-0.112-1.969 0.025-0.636 0.137-1.28 0.34-1.933 0.61v0c0.466 0.191 0.927 0.337 1.384 0.436 0.456 0.1 0.894 0.184 1.314 0.253v0c0.468 0.062 0.942-0.016 1.424-0.232 0.481-0.207 0.751-0.419 0.81-0.637z"
                                                            fill="#7c4e29"
                                                            data-fill-palette-color="primary"></path>
                                                        <path
                                                            d="M90.886 250.416v0c0.372-0.394 0.755-0.909 1.148-1.545 0.397-0.642 0.75-1.304 1.06-1.984 0.31-0.681 0.543-1.356 0.701-2.026 0.158-0.67 0.162-1.248 0.014-1.735v0c-0.059-0.193-0.135-0.287-0.229-0.284-0.1 0-0.141 0.113-0.123 0.338v0c0.008 0.489-0.203 1.122-0.634 1.901-0.434 0.784-0.96 1.603-1.578 2.457-0.618 0.855-1.278 1.687-1.979 2.498-0.702 0.81-1.343 1.506-1.923 2.088v0c-0.258 0.239-0.558 0.548-0.9 0.928-0.338 0.389-0.684 0.777-1.037 1.165-0.363 0.391-0.699 0.777-1.01 1.157-0.314 0.386-0.57 0.715-0.769 0.986v0c-0.035 0.066-0.11 0.184-0.224 0.354-0.117 0.161-0.153 0.28-0.109 0.357v0c0.042 0.022 0.151-0.031 0.327-0.16 0.18-0.135 0.29-0.218 0.33-0.251v0c1.129-0.905 2.314-1.884 3.554-2.937 1.236-1.048 2.363-2.15 3.381-3.307zM86.059 257.705v0c0.309-0.32 0.722-0.734 1.24-1.242 0.508-0.506 1.052-1.069 1.63-1.691 0.572-0.625 1.158-1.282 1.756-1.971 0.602-0.694 1.145-1.389 1.632-2.082 0.495-0.697 0.896-1.368 1.201-2.013 0.306-0.645 0.468-1.216 0.488-1.713v0c0.017-0.075 0.009-0.161-0.025-0.256-0.025-0.098-0.082-0.063-0.171 0.105v0c-0.674 1.363-1.529 2.634-2.566 3.811-1.027 1.175-2.011 2.211-2.952 3.109v0c-0.736 0.715-1.473 1.425-2.212 2.131-0.742 0.712-1.438 1.44-2.089 2.185-0.654 0.735-1.224 1.5-1.71 2.295-0.492 0.791-0.834 1.62-1.028 2.486v0c-0.06 0.314-0.06 0.487 0 0.519v0c0.075 0.017 0.18-0.1 0.314-0.351v0c0.201-0.377 0.464-0.783 0.789-1.218 0.324-0.435 0.688-0.879 1.092-1.332 0.407-0.46 0.834-0.928 1.281-1.405 0.441-0.48 0.884-0.936 1.33-1.367zM80.868 266v0c-0.692-0.477-1.152-1.192-1.381-2.146-0.226-0.959-0.184-1.96 0.126-3.002v0c0.297-1.003 0.74-1.947 1.328-2.833 0.594-0.883 1.226-1.669 1.894-2.359v0c1.006-1.078 2.097-2.162 3.27-3.25 1.171-1.083 2.264-2.187 3.282-3.314 1.02-1.132 1.872-2.289 2.556-3.47 0.684-1.181 1.066-2.4 1.146-3.658v0c-0.032-0.04-0.038-0.101-0.018-0.182 0.018-0.091-0.001-0.135-0.056-0.134v0c-0.06-0.032-0.107 0.035-0.142 0.201v0c-0.35 1.059-0.899 2.109-1.646 3.148-0.741 1.043-1.597 2.082-2.566 3.119-0.972 1.027-2.003 2.073-3.094 3.137-1.088 1.058-2.153 2.131-3.197 3.221v0c-0.774 0.802-1.492 1.707-2.153 2.715-0.662 1.008-1.16 2.108-1.496 3.298v0c-0.165 0.612-0.237 1.208-0.216 1.789 0.03 0.578 0.143 1.115 0.339 1.612 0.19 0.494 0.45 0.937 0.779 1.328 0.33 0.391 0.721 0.696 1.174 0.914v0l0.089 0.048c0.024 0.013 0.063 0.018 0.118 0.017v0c0.035-0.066-0.01-0.132-0.136-0.199zM80.765 263.925v0c-0.144-0.638-0.147-1.367-0.01-2.186v0c0.014-0.069 0.037-0.184 0.068-0.344 0.032-0.16 0.063-0.32 0.095-0.481 0.028-0.154 0.054-0.302 0.076-0.444 0.019-0.136 0.016-0.211-0.008-0.223v0c-0.084-0.045-0.199 0.071-0.346 0.346-0.144 0.269-0.279 0.601-0.405 0.995-0.129 0.385-0.229 0.797-0.302 1.235-0.069 0.432-0.076 0.798-0.02 1.097v0c0.134 0.556 0.352 0.969 0.655 1.238 0.302 0.269 0.63 0.498 0.983 0.687v0c0.126 0.067 0.247 0.086 0.363 0.055 0.113-0.039 0.085-0.131-0.084-0.275v0c-0.573-0.383-0.928-0.949-1.065-1.7z"
                                                            fill="#7c4e29"
                                                            data-fill-palette-color="primary"></path>
                                                        <path
                                                            d="M125.001 268.209v0c0.117-0.29 0.215-0.635 0.295-1.035 0.08-0.4 0.118-0.816 0.114-1.25 0.003-0.433-0.051-0.855-0.162-1.265-0.117-0.418-0.292-0.791-0.527-1.119v0c-0.125-0.117-0.198-0.177-0.218-0.18v0c-0.094-0.015-0.105 0.055-0.035 0.211v0c0.091 0.325 0.066 0.809-0.075 1.452-0.146 0.636-0.334 1.29-0.562 1.961-0.236 0.676-0.463 1.279-0.68 1.806-0.218 0.528-0.35 0.85-0.397 0.966v0c-0.23 0.395-0.461 0.897-0.693 1.506-0.239 0.614-0.391 1.118-0.457 1.513v0c-0.028 0.044-0.054 0.139-0.078 0.286-0.023 0.141-0.003 0.226 0.06 0.258v0c0.027 0.004 0.083-0.045 0.169-0.148 0.094-0.108 0.168-0.182 0.223-0.221v0c0.546-0.68 1.087-1.433 1.622-2.259 0.529-0.827 0.996-1.655 1.401-2.482zM124.263 273.545v0c0.164-0.406 0.404-0.927 0.722-1.562 0.325-0.634 0.617-1.298 0.877-1.991 0.258-0.686 0.445-1.378 0.559-2.074 0.114-0.69 0.068-1.282-0.139-1.777v0c-0.078-0.109-0.141-0.168-0.188-0.176v0c-0.047-0.008-0.068 0.037-0.063 0.134v0c-0.148 0.897-0.382 1.708-0.702 2.433-0.327 0.73-0.668 1.441-1.023 2.131v0c-0.599 1.125-1.156 2.23-1.673 3.314-0.516 1.084-0.85 2.229-1.001 3.435v0c-0.011 0.067-0.017 0.145-0.019 0.234 0 0.083 0.034 0.129 0.101 0.141v0c0.047 0.008 0.088-0.01 0.122-0.052 0.028-0.044 0.073-0.108 0.135-0.194v0c0.327-0.524 0.708-1.142 1.143-1.854 0.428-0.713 0.81-1.427 1.149-2.142zM120.72 279.428v0c-0.364-0.542-0.616-1.12-0.755-1.734-0.139-0.615-0.206-1.228-0.201-1.839 0.005-0.611 0.081-1.218 0.229-1.82 0.148-0.602 0.337-1.162 0.567-1.681v0c0.347-0.809 0.754-1.609 1.222-2.397 0.468-0.789 0.888-1.583 1.26-2.382 0.372-0.791 0.645-1.589 0.819-2.392 0.168-0.805 0.127-1.623-0.12-2.455v0c-0.054-0.133-0.091-0.201-0.111-0.204v0c-0.027-0.004-0.043 0.01-0.048 0.044-0.007 0.04 0.002 0.073 0.025 0.097v0c-0.049 0.714-0.216 1.433-0.501 2.156-0.291 0.722-0.63 1.457-1.015 2.205-0.391 0.74-0.812 1.499-1.264 2.277-0.453 0.785-0.858 1.591-1.215 2.42v0c-0.266 0.609-0.483 1.237-0.652 1.883-0.169 0.646-0.236 1.302-0.202 1.969 0.033 0.673 0.189 1.331 0.467 1.976 0.277 0.651 0.727 1.283 1.348 1.894v0c0.039 0.055 0.095 0.091 0.167 0.11 0.065 0.024 0.058-0.018-0.02-0.127zM121.222 278.139v0c-0.036-0.199-0.071-0.445-0.104-0.74-0.041-0.296-0.063-0.578-0.066-0.846v0c-0.031-0.101-0.059-0.285-0.085-0.551-0.03-0.273-0.069-0.414-0.116-0.421v0c-0.094-0.015-0.171 0.058-0.232 0.219-0.06 0.155-0.111 0.357-0.152 0.604-0.041 0.248-0.067 0.508-0.077 0.782-0.011 0.273 0.005 0.51 0.047 0.71v0c0.063 0.492 0.18 0.848 0.35 1.068 0.163 0.22 0.399 0.417 0.707 0.592v0c0.128 0.097 0.229 0.151 0.303 0.164v0c0.02 0.003 0.03-0.016 0.03-0.057-0.008-0.036-0.025-0.056-0.052-0.06v0c-0.13-0.214-0.24-0.439-0.332-0.674-0.1-0.23-0.173-0.493-0.221-0.79zM126.973 260.405v0c-0.114-0.019-0.292-0.065-0.534-0.14-0.241-0.081-0.346-0.215-0.315-0.403v0c0.011-0.067 0.133-0.136 0.364-0.208 0.225-0.073 0.485-0.185 0.778-0.335 0.294-0.158 0.571-0.377 0.831-0.657 0.267-0.286 0.442-0.673 0.523-1.162v0c0.101-0.609 0.06-1.087-0.124-1.434v0c-0.036-0.075-0.083-0.162-0.143-0.261-0.054-0.091-0.069-0.146-0.045-0.163v0c0.047 0.008 0.098 0.033 0.152 0.077 0.055 0.043 0.09 0.08 0.106 0.111v0c0.427 0.332 0.73 0.723 0.91 1.172 0.179 0.456 0.238 0.872 0.175 1.246v0c-0.124 0.75-0.402 1.33-0.834 1.74-0.426 0.411-1.04 0.55-1.844 0.417zM125.91 258.785v0c-0.3 0.067-0.429-0.026-0.387-0.281v0c0.031-0.187 0.131-0.357 0.301-0.507 0.171-0.158 0.337-0.33 0.498-0.516 0.163-0.193 0.29-0.42 0.381-0.68 0.091-0.26 0.076-0.606-0.045-1.04v0c-0.028-0.122-0.087-0.262-0.178-0.421-0.097-0.161-0.12-0.25-0.069-0.269v0c0.05-0.012 0.148 0.021 0.293 0.1 0.144 0.086 0.237 0.146 0.28 0.18v0c0.364 0.253 0.615 0.583 0.754 0.992 0.139 0.408 0.185 0.753 0.138 1.034v0c-0.073 0.442-0.315 0.78-0.725 1.015-0.417 0.234-0.831 0.365-1.241 0.393zM125.2 256.717v0c0.02-0.121 0.079-0.252 0.178-0.393 0.091-0.136 0.221-0.19 0.388-0.163v0c0.114 0.019 0.195 0.108 0.245 0.267 0.041 0.165 0.052 0.308 0.032 0.429v0c-0.015 0.094-0.069 0.212-0.162 0.355-0.098 0.135-0.204 0.193-0.317 0.174v0c-0.167-0.028-0.273-0.117-0.317-0.269-0.05-0.153-0.066-0.286-0.047-0.4z"
                                                            fill="#7c4e29"
                                                            data-fill-palette-color="primary"></path>
                                                        <path
                                                            d="M165.451 271.893v0c-0.012-0.598 0.042-1.215 0.161-1.85 0.111-0.641 0.272-1.239 0.481-1.794 0.216-0.557 0.48-1.039 0.793-1.448 0.312-0.408 0.668-0.708 1.068-0.897v0c0.519-0.218 0.919-0.315 1.199-0.29 0.279 0.018 0.455 0.093 0.527 0.225v0c0.112 0.2 0.15 0.411 0.115 0.631-0.028 0.226-0.091 0.43-0.189 0.613-0.103 0.191-0.22 0.364-0.35 0.519-0.124 0.154-0.23 0.252-0.319 0.296v0c-0.112 0.069-0.145 0.133-0.1 0.194 0.053 0.066 0.169 0.059 0.348-0.022v0c0.202-0.064 0.397-0.186 0.586-0.365 0.182-0.178 0.344-0.387 0.486-0.626 0.135-0.245 0.227-0.5 0.275-0.764 0.05-0.257 0.038-0.514-0.036-0.769v0c-0.094-0.252-0.255-0.454-0.482-0.606-0.234-0.151-0.5-0.247-0.798-0.289-0.297-0.043-0.623-0.032-0.977 0.032-0.347 0.063-0.663 0.183-0.949 0.359v0c-0.565 0.344-1.034 0.784-1.405 1.32-0.377 0.544-0.679 1.144-0.904 1.799-0.233 0.656-0.393 1.351-0.481 2.084-0.082 0.725-0.13 1.451-0.142 2.178v0c-0.029 0.902 0.065 1.761 0.281 2.577 0.224 0.815 0.612 1.413 1.165 1.795v0c0.276 0.191 0.61 0.3 1 0.326 0.391 0.026 0.796-0.003 1.216-0.087 0.418-0.09 0.832-0.244 1.24-0.463 0.409-0.219 0.779-0.479 1.11-0.781v0c0.085-0.064 0.15-0.124 0.195-0.18 0.052-0.058 0.052-0.096 0-0.114v0c-0.024-0.016-0.115 0.014-0.274 0.091v0c-1.091 0.488-1.958 0.766-2.6 0.835-0.643 0.068-1.132-0.06-1.467-0.386-0.335-0.325-0.549-0.838-0.641-1.539-0.091-0.694-0.135-1.562-0.132-2.604zM167.185 279.048v0c-0.756 0.089-1.511-0.022-2.264-0.334-0.76-0.31-1.326-0.77-1.699-1.378v0c-0.383-0.627-0.664-1.245-0.843-1.854-0.186-0.608-0.309-1.206-0.368-1.795v0c-0.128-1.239-0.11-2.508 0.054-3.807 0.165-1.292 0.566-2.506 1.201-3.642v0c0.404-0.701 0.826-1.302 1.266-1.803 0.44-0.501 1.063-0.945 1.868-1.332v0c0.399-0.197 0.84-0.349 1.324-0.458 0.489-0.116 0.986-0.151 1.492-0.105 0.497 0.041 0.983 0.173 1.458 0.397 0.476 0.231 0.928 0.573 1.356 1.027v0c0.109 0.222 0.201 0.326 0.274 0.312v0c0.053-0.086 0.03-0.216-0.071-0.39v0c-0.276-0.722-0.764-1.248-1.466-1.576-0.702-0.335-1.478-0.484-2.326-0.447-0.856 0.031-1.711 0.228-2.562 0.59-0.852 0.362-1.567 0.885-2.146 1.569v0c-0.777 0.886-1.39 1.859-1.839 2.92-0.449 1.061-0.751 2.15-0.907 3.269-0.164 1.113-0.177 2.236-0.04 3.369 0.131 1.142 0.412 2.229 0.84 3.262v0c0.268 0.676 0.611 1.2 1.031 1.571 0.418 0.365 0.87 0.632 1.355 0.799 0.492 0.166 1.001 0.235 1.528 0.209 0.527-0.02 1.046-0.087 1.557-0.2v0c0.14-0.025 0.225-0.055 0.253-0.087 0.029-0.033 0.041-0.059 0.037-0.079v0c-0.008-0.047-0.13-0.049-0.363-0.007zM162.916 271.091v0c0.004 0.02 0.007 0.078 0.011 0.174 0.01 0.095 0.017 0.19 0.021 0.286 0.004 0.096 0.013 0.187 0.029 0.274 0.015 0.08 0.045 0.116 0.092 0.108v0c0.047-0.008 0.102-0.139 0.166-0.393 0.064-0.253 0.094-0.393 0.09-0.419v0c0.353-1.512 0.853-2.883 1.499-4.111v0c0.055-0.079 0.166-0.261 0.335-0.547 0.162-0.285 0.397-0.589 0.703-0.914 0.308-0.318 0.688-0.615 1.142-0.89 0.46-0.277 1-0.437 1.62-0.48v0c0.641-0.041 1.198 0.1 1.669 0.421 0.467 0.329 0.692 0.774 0.677 1.336v0c0 0.531-0.102 0.995-0.306 1.39-0.21 0.404-0.431 0.685-0.664 0.845v0c-0.174 0.107-0.219 0.164-0.135 0.169 0.085 0.012 0.151 0.014 0.198 0.005v0c0.276-0.078 0.555-0.246 0.839-0.504 0.279-0.251 0.506-0.557 0.682-0.92 0.177-0.356 0.276-0.74 0.298-1.151 0.021-0.418-0.095-0.845-0.347-1.282v0c-0.277-0.46-0.615-0.802-1.014-1.026-0.407-0.23-0.833-0.37-1.276-0.42-0.445-0.057-0.884-0.046-1.319 0.032-0.427 0.078-0.788 0.181-1.081 0.31v0c-0.846 0.395-1.532 0.868-2.06 1.419-0.526 0.558-0.929 1.169-1.209 1.834-0.278 0.671-0.456 1.38-0.535 2.125-0.084 0.753-0.126 1.53-0.125 2.329zM171.16 276.154v0c0.068-0.157 0.091-0.258 0.069-0.302-0.022-0.044-0.055-0.056-0.099-0.034-0.046 0.015-0.103 0.06-0.172 0.135-0.069 0.075-0.125 0.126-0.169 0.154v0c-0.408 0.412-0.881 0.77-1.418 1.075-0.538 0.305-1.157 0.52-1.859 0.648v0c-0.354 0.064-0.79 0.016-1.309-0.145-0.526-0.16-0.942-0.343-1.248-0.549v0c-0.115-0.103-0.232-0.196-0.351-0.278-0.126-0.087-0.224-0.114-0.294-0.081v0c-0.077 0.11-0.053 0.241 0.071 0.39v0c0.502 0.75 1.041 1.194 1.618 1.331 0.583 0.136 1.179 0.148 1.786 0.038v0c0.354-0.064 0.703-0.176 1.046-0.335 0.344-0.159 0.672-0.343 0.987-0.552 0.313-0.215 0.583-0.454 0.811-0.716 0.23-0.255 0.406-0.515 0.531-0.779z"
                                                            fill="#7c4e29"
                                                            data-fill-palette-color="primary"></path>
                                                        <path
                                                            d="M213.473 250.478v0c-0.273-0.588-0.613-1.175-1.02-1.762-0.407-0.587-0.87-1.077-1.39-1.47-0.529-0.395-1.115-0.633-1.757-0.715-0.652-0.084-1.333 0.086-2.043 0.512v0c-0.961 0.575-1.642 1.339-2.044 2.292-0.4 0.944-0.628 1.95-0.684 3.02-0.046 1.072 0.046 2.124 0.277 3.156 0.234 1.038 0.525 1.94 0.873 2.705v0c0.464 1.051 0.953 1.909 1.47 2.572 0.519 0.654 1.038 1.138 1.557 1.452 0.52 0.313 1.035 0.467 1.547 0.462 0.514 0 0.996-0.134 1.444-0.402v0c0.639-0.359 1.199-0.936 1.68-1.73 0.478-0.8 0.818-1.724 1.022-2.772 0.2-1.053 0.233-2.212 0.101-3.477-0.133-1.265-0.477-2.546-1.033-3.843zM204.883 258.482v0c-0.407-0.864-0.74-1.882-0.999-3.055-0.26-1.173-0.35-2.354-0.27-3.541 0.084-1.181 0.365-2.295 0.846-3.342 0.477-1.053 1.257-1.904 2.339-2.553v0c0.815-0.488 1.604-0.696 2.368-0.623 0.76 0.067 1.464 0.318 2.112 0.752 0.644 0.429 1.218 0.971 1.721 1.627 0.503 0.656 0.903 1.322 1.198 2v0c0.692 1.579 1.098 3.068 1.217 4.468 0.119 1.4 0.039 2.674-0.239 3.821-0.284 1.151-0.713 2.144-1.288 2.979-0.585 0.833-1.244 1.469-1.978 1.909v0c-0.553 0.331-1.121 0.505-1.704 0.522-0.583 0.017-1.178-0.145-1.786-0.485-0.611-0.346-1.212-0.888-1.804-1.625-0.592-0.737-1.17-1.688-1.733-2.854zM210.89 260.746v0c-0.099 0.059-0.222 0.085-0.368 0.078-0.141-0.011-0.275-0.049-0.401-0.115-0.117-0.064-0.219-0.142-0.306-0.233-0.077-0.089-0.078-0.183-0.003-0.282v0c0.05-0.062 0.173-0.041 0.37 0.063 0.202 0.1 0.365 0.114 0.487 0.04v0c0.204-0.122 0.364-0.396 0.481-0.822 0.113-0.432 0.192-0.902 0.235-1.41 0.043-0.509 0.057-0.995 0.039-1.459-0.008-0.462-0.02-0.799-0.036-1.011v0c-0.02-0.218-0.064-0.476-0.132-0.775-0.072-0.305-0.153-0.612-0.243-0.922-0.087-0.304-0.181-0.6-0.283-0.887-0.101-0.288-0.197-0.527-0.287-0.718v0c-0.446-0.983-0.892-1.681-1.337-2.094-0.44-0.417-0.822-0.528-1.149-0.333v0c-0.245 0.146-0.454 0.378-0.627 0.696-0.177 0.312-0.309 0.66-0.395 1.044-0.086 0.384-0.134 0.78-0.143 1.189-0.003 0.405 0.046 0.783 0.146 1.134v0c0.104 0.412 0.136 0.63 0.096 0.655v0c-0.058 0.035-0.192-0.122-0.402-0.472v0c-0.172-0.419-0.269-0.879-0.292-1.379-0.023-0.5 0.031-0.992 0.162-1.473 0.125-0.478 0.316-0.925 0.574-1.34 0.252-0.412 0.57-0.733 0.953-0.963v0c0.39-0.234 0.763-0.271 1.12-0.113 0.359 0.164 0.699 0.42 1.017 0.767 0.319 0.347 0.598 0.734 0.837 1.16 0.245 0.423 0.421 0.768 0.526 1.037v0c0.246 0.596 0.439 1.208 0.578 1.837 0.136 0.623 0.24 1.272 0.313 1.949v0c0.024 0.318 0.02 0.727-0.011 1.229-0.028 0.507-0.102 1.018-0.221 1.532-0.125 0.518-0.295 0.999-0.511 1.445-0.216 0.446-0.478 0.761-0.787 0.946zM212.219 260.745v0c0.097 0.108 0.061 0.268-0.105 0.478-0.167 0.211-0.36 0.382-0.582 0.515v0c-0.649 0.357-1.257 0.444-1.824 0.262-0.565-0.191-1.074-0.512-1.525-0.961-0.451-0.45-0.842-0.963-1.172-1.541-0.33-0.578-0.592-1.073-0.785-1.488v0c-0.32-0.718-0.608-1.57-0.866-2.554-0.254-0.979-0.377-1.969-0.367-2.972 0.005-1.008 0.186-1.954 0.541-2.84 0.352-0.891 0.977-1.605 1.873-2.142v0c0.594-0.356 1.159-0.488 1.696-0.399 0.54 0.096 1.031 0.316 1.474 0.66 0.443 0.344 0.834 0.766 1.174 1.266 0.343 0.507 0.613 0.99 0.809 1.45v0c0.242 0.496 0.425 0.967 0.551 1.414 0.135 0.449 0.248 0.963 0.341 1.54v0c0.029 0.18 0.045 0.392 0.048 0.636 0.013 0.246-0.047 0.396-0.18 0.452v0c-0.078 0.015-0.146-0.059-0.204-0.222-0.049-0.161-0.111-0.364-0.188-0.611-0.082-0.243-0.161-0.501-0.237-0.772-0.081-0.268-0.171-0.51-0.27-0.728v0c-0.168-0.374-0.402-0.823-0.701-1.348-0.305-0.522-0.647-1.001-1.027-1.438-0.386-0.433-0.806-0.751-1.26-0.954-0.454-0.203-0.925-0.158-1.414 0.135v0c-0.716 0.429-1.236 1.053-1.56 1.872-0.33 0.823-0.52 1.7-0.571 2.632-0.051 0.932 0.003 1.841 0.162 2.727 0.159 0.886 0.372 1.624 0.639 2.216v0c0.155 0.35 0.39 0.763 0.706 1.238 0.31 0.479 0.675 0.916 1.095 1.314 0.423 0.403 0.889 0.686 1.398 0.848 0.518 0.165 1.047 0.097 1.587-0.204v0c0.177-0.074 0.325-0.183 0.445-0.326 0.12-0.143 0.22-0.195 0.299-0.155z"
                                                            fill="#7c4e29"
                                                            data-fill-palette-color="primary"></path>
                                                        <path
                                                            d="M246.099 216.81v0c0.524 0.765 0.987 1.547 1.389 2.347 0.398 0.805 0.786 1.624 1.164 2.456v0c0.009 0.067 0.054 0.191 0.135 0.375 0.087 0.187 0.089 0.296 0.005 0.325v0c-0.029 0.038-0.096 0.007-0.2-0.09-0.104-0.098-0.186-0.17-0.245-0.215v0c-0.138-0.132-0.322-0.343-0.553-0.633-0.229-0.28-0.467-0.584-0.712-0.911-0.249-0.321-0.486-0.637-0.709-0.946-0.224-0.31-0.401-0.558-0.531-0.745v0c-0.766-1.106-1.508-2.01-2.227-2.712-0.715-0.707-1.427-1.167-2.136-1.381v0c-0.12-0.033-0.166-0.068-0.137-0.105v0c0.029-0.038 0.077-0.061 0.144-0.07 0.067-0.009 0.116-0.017 0.149-0.026v0c0.383-0.03 0.801 0.023 1.254 0.159 0.449 0.141 0.878 0.323 1.289 0.546 0.412 0.233 0.789 0.494 1.131 0.784 0.343 0.299 0.607 0.58 0.79 0.842zM244.66 214.476v0c0.567 0.043 1.124 0.294 1.671 0.751 0.551 0.452 1.08 0.972 1.586 1.56 0.506 0.588 0.964 1.183 1.375 1.783 0.401 0.602 0.728 1.073 0.98 1.413v0c0.478 0.669 0.937 1.384 1.377 2.146 0.446 0.765 0.825 1.435 1.136 2.009v0c0.108 0.204 0.14 0.318 0.095 0.344v0c-0.063 0.037-0.131 0.036-0.204-0.003-0.073-0.039-0.128-0.073-0.165-0.102v0c-1.015-0.784-1.878-1.687-2.59-2.709-0.721-1.02-1.429-2.069-2.123-3.146v0c-0.465-0.685-0.937-1.351-1.416-1.995-0.474-0.641-1.079-1.245-1.815-1.814v0c-0.134-0.104-0.187-0.174-0.158-0.212v0c0.012-0.016 0.043-0.022 0.092-0.019 0.039 0.005 0.092 0.003 0.159-0.006zM249.157 226.969v0c0.083 0.004 0.116 0.133 0.1 0.386-0.02 0.259-0.04 0.424-0.06 0.494v0c-0.338 1.059-0.828 1.71-1.47 1.952-0.636 0.246-1.313 0.25-2.03 0.013-0.713-0.242-1.413-0.629-2.101-1.16-0.687-0.531-1.276-1.046-1.765-1.544v0c-0.426-0.415-0.864-0.925-1.314-1.53-0.45-0.605-0.864-1.234-1.243-1.887-0.384-0.657-0.703-1.315-0.957-1.975-0.254-0.659-0.382-1.26-0.383-1.801v0c0.008-0.054 0.011-0.12 0.011-0.197 0-0.077 0.014-0.135 0.043-0.173v0c0.063-0.037 0.145 0.073 0.246 0.331v0c0.101 0.258 0.26 0.596 0.478 1.013 0.214 0.423 0.474 0.89 0.782 1.402 0.317 0.511 0.658 1.036 1.022 1.574 0.364 0.539 0.755 1.043 1.173 1.512v0c0.414 0.474 0.832 0.904 1.254 1.291 0.422 0.386 0.813 0.718 1.172 0.996 0.354 0.274 0.663 0.496 0.927 0.665 0.254 0.171 0.427 0.274 0.519 0.311v0c0.685 0.323 1.307 0.406 1.868 0.247 0.551-0.158 1.008-0.589 1.372-1.294v0c0.017-0.021 0.07-0.13 0.162-0.325 0.095-0.201 0.16-0.301 0.194-0.301zM254.145 225.009v0c0.133-0.017 0.219-0.011 0.256 0.018v0c0.038 0.029 0.015 0.076-0.069 0.14-0.083 0.073-0.149 0.121-0.2 0.141v0c-0.191 0.092-0.444 0.197-0.758 0.315-0.319 0.113-0.7 0.09-1.141-0.071v0c-0.196-0.057-0.408-0.161-0.635-0.311-0.237-0.149-0.449-0.296-0.637-0.441-0.188-0.145-0.326-0.282-0.415-0.411-0.094-0.133-0.111-0.223-0.049-0.269v0c0.051-0.021 0.168 0.005 0.351 0.078 0.188 0.068 0.379 0.147 0.575 0.238v0c0.238 0.124 0.469 0.225 0.692 0.304 0.219 0.083 0.451 0.16 0.697 0.23v0c0.284 0.065 0.523 0.1 0.717 0.104 0.193-0.005 0.398-0.027 0.616-0.065zM250.586 226.401v0c0.159 0.449 0.241 1.014 0.246 1.696 0 0.677-0.276 1.373-0.828 2.087v0c-0.436 0.564-0.962 0.934-1.578 1.109-0.612 0.17-1.241 0.207-1.887 0.111-0.646-0.096-1.279-0.298-1.899-0.605-0.616-0.313-1.168-0.658-1.656-1.036v0c-0.585-0.486-1.147-1.002-1.686-1.547-0.535-0.551-1.012-1.099-1.43-1.646-0.414-0.552-0.76-1.076-1.036-1.572-0.277-0.497-0.476-0.943-0.6-1.339v0c0.013-0.05 0.006-0.124-0.021-0.222-0.032-0.102-0.015-0.158 0.051-0.166v0c0.034 0 0.073 0.039 0.117 0.116 0.044 0.077 0.076 0.14 0.097 0.19v0c0.441 0.606 0.913 1.233 1.416 1.88 0.504 0.647 1.04 1.262 1.608 1.847 0.564 0.59 1.158 1.126 1.781 1.608 0.623 0.481 1.241 0.869 1.854 1.163v0c0.412 0.199 0.846 0.315 1.3 0.349 0.454 0.034 0.875 0.016 1.264-0.053 0.387-0.079 0.734-0.217 1.042-0.417 0.303-0.203 0.537-0.451 0.703-0.743v0c0.344-0.6 0.51-1.132 0.499-1.595-0.016-0.467-0.143-0.886-0.378-1.258-0.237-0.381-0.539-0.734-0.905-1.06-0.356-0.327-0.712-0.671-1.069-1.031v0c0.193 0.295 0.309 0.676 0.35 1.145 0.046 0.473 0.019 0.919-0.082 1.339-0.101 0.419-0.272 0.768-0.512 1.045-0.246 0.273-0.585 0.363-1.018 0.268v0c-0.559-0.132-1.091-0.375-1.596-0.731-0.506-0.366-1.035-0.791-1.586-1.277v0c-0.556-0.49-1.093-1.038-1.611-1.644-0.519-0.616-0.979-1.258-1.379-1.928-0.4-0.67-0.732-1.355-0.997-2.057-0.274-0.7-0.453-1.401-0.537-2.101v0l-0.026-0.199c-0.013-0.105 0.001-0.184 0.042-0.238v0c0 0 0.065 0.11 0.195 0.331v0c0.592 1.332 1.284 2.605 2.079 3.819 0.789 1.21 1.71 2.282 2.763 3.216v0c1.154 1.037 2.002 1.594 2.543 1.67 0.542 0.076 0.857-0.11 0.945-0.557 0.084-0.441 0-1.055-0.25-1.84-0.255-0.78-0.604-1.522-1.047-2.224v0c-0.402-0.645-0.814-1.316-1.238-2.011-0.419-0.701-0.858-1.387-1.316-2.06-0.459-0.672-0.941-1.285-1.447-1.839-0.501-0.55-1.027-0.996-1.579-1.336v0c-0.091-0.071-0.122-0.125-0.094-0.162v0c0.012-0.016 0.027-0.018 0.043-0.005v0c0.038 0.029 0.065 0.033 0.081 0.011v0c0.034 0 0.059 0.007 0.075 0.019v0c0.871 0.193 1.627 0.558 2.267 1.096 0.634 0.533 1.216 1.163 1.744 1.888 0.523 0.722 1.03 1.491 1.522 2.309 0.496 0.812 1.028 1.588 1.597 2.327v0c0.369 0.465 0.778 0.919 1.227 1.36 0.458 0.44 0.946 0.829 1.463 1.169 0.518 0.34 1.064 0.599 1.638 0.777 0.573 0.168 1.132 0.21 1.678 0.127v0c0.067-0.009 0.111-0.005 0.132 0.012v0c0.038 0.029 0.032 0.064-0.015 0.103-0.044 0.035-0.088 0.065-0.134 0.09v0c-0.412 0.256-0.87 0.399-1.375 0.43-0.504 0.031-1.021-0.039-1.55-0.208z"
                                                            fill="#7c4e29"
                                                            data-fill-palette-color="primary"></path>
                                                        <path
                                                            d="M261.46 181.029v0c-0.196-0.079-0.419-0.22-0.671-0.422-0.253-0.196-0.481-0.43-0.684-0.702-0.202-0.272-0.37-0.577-0.503-0.914-0.14-0.339-0.191-0.69-0.154-1.055v0c0.08-0.769 0.304-1.357 0.673-1.764 0.371-0.414 0.739-0.701 1.105-0.861v0c0.164-0.05 0.256-0.062 0.276-0.035v0c0.032 0.059-0.005 0.137-0.111 0.232v0c-0.132 0.11-0.275 0.308-0.432 0.594-0.162 0.284-0.277 0.611-0.344 0.981-0.072 0.361-0.066 0.734 0.017 1.12 0.084 0.386 0.3 0.741 0.65 1.064v0c0.33 0.296 0.692 0.542 1.087 0.737 0.39 0.187 0.759 0.339 1.107 0.457 0.347 0.117 0.652 0.201 0.914 0.25 0.253 0.054 0.425 0.094 0.516 0.121v0c0.267 0.03 0.595 0.081 0.984 0.155 0.38 0.078 0.766 0.174 1.156 0.29 0.384 0.114 0.76 0.24 1.13 0.379 0.371 0.132 0.683 0.274 0.935 0.426v0c0.066 0.041 0.172 0.101 0.318 0.18 0.151 0.087 0.22 0.154 0.207 0.199v0c-0.033 0.111-0.131 0.142-0.294 0.093-0.156-0.046-0.27-0.08-0.341-0.101v0c-0.579-0.123-1.179-0.212-1.8-0.269-0.612-0.061-1.242-0.132-1.891-0.212-0.642-0.078-1.286-0.187-1.93-0.329-0.638-0.14-1.278-0.344-1.92-0.614zM267.875 184.242v0c-0.448-0.161-1.103-0.314-1.967-0.457-0.864-0.143-1.838-0.39-2.923-0.741v0c-0.56-0.188-1.129-0.417-1.707-0.688-0.578-0.271-1.112-0.667-1.601-1.187v0c-0.529-0.554-0.864-1.156-1.003-1.806-0.148-0.646-0.147-1.173 0.002-1.582v0c0.019-0.065 0.04-0.133 0.061-0.205 0.019-0.065 0.039-0.095 0.058-0.089v0c0.046 0.014 0.059 0.028 0.041 0.044-0.014 0.024-0.019 0.111-0.014 0.261v0c-0.011 0.443 0.069 0.863 0.241 1.261 0.165 0.396 0.384 0.758 0.654 1.087 0.277 0.33 0.578 0.618 0.901 0.862 0.324 0.245 0.631 0.425 0.923 0.54v0c1.208 0.508 2.305 0.82 3.29 0.935v0c0.781 0.112 1.589 0.253 2.423 0.423 0.826 0.175 1.556 0.423 2.189 0.746 0.64 0.325 1.129 0.728 1.466 1.211 0.336 0.489 0.419 1.105 0.248 1.847v0c-0.019 0.065-0.048 0.149-0.085 0.251-0.044 0.1-0.089 0.144-0.134 0.13v0c-0.046-0.014-0.096-0.142-0.152-0.385v0c-0.097-0.673-0.379-1.178-0.845-1.515-0.473-0.339-1.162-0.653-2.066-0.943zM270.829 189.06v0c0.596-0.17 1.117-0.567 1.564-1.192 0.448-0.625 0.677-1.455 0.688-2.493v0c0.005-0.515-0.111-1.007-0.348-1.473-0.23-0.465-0.521-0.88-0.872-1.247-0.351-0.366-0.736-0.679-1.155-0.938-0.419-0.259-0.816-0.458-1.192-0.598v0c-0.63-0.215-1.262-0.386-1.897-0.511-0.635-0.125-1.254-0.235-1.857-0.329-0.604-0.087-1.187-0.186-1.749-0.297-0.564-0.104-1.102-0.257-1.615-0.458v0c-0.559-0.216-0.944-0.504-1.156-0.864-0.218-0.362-0.307-0.753-0.267-1.173 0.042-0.427 0.195-0.834 0.459-1.223 0.266-0.395 0.6-0.732 1-1.009v0c0.073-0.078 0.141-0.093 0.205-0.046v0c0.046 0.014 0.049 0.039 0.009 0.078-0.033 0.04-0.069 0.079-0.109 0.116v0c-0.523 0.758-0.795 1.389-0.817 1.891-0.029 0.501 0.305 0.88 1 1.137v0c0.806 0.289 1.787 0.513 2.944 0.673 1.158 0.153 2.404 0.452 3.736 0.898v0c0.461 0.116 0.969 0.323 1.525 0.623 0.555 0.3 1.07 0.676 1.544 1.128 0.468 0.451 0.85 0.975 1.147 1.572 0.29 0.596 0.399 1.23 0.327 1.903v0c-0.175 1.258-0.53 2.2-1.064 2.827-0.531 0.621-1.176 0.992-1.934 1.114v0c-0.15 0.005-0.235 0.005-0.254-0.002v0l0.008-0.029c0 0 0.043-0.026 0.13-0.078zM271.275 187.557v0c0.247-0.401 0.448-0.911 0.604-1.53v0c0.042-0.214 0.061-0.481 0.057-0.801-0.002-0.326 0.022-0.492 0.074-0.498v0c0.112-0.044 0.206 0.058 0.28 0.306 0.077 0.242 0.12 0.538 0.13 0.888 0.003 0.348-0.027 0.7-0.091 1.056-0.068 0.348-0.181 0.622-0.34 0.823v0c-0.312 0.382-0.604 0.638-0.877 0.769-0.279 0.129-0.601 0.225-0.966 0.287v0l-0.157 0.027c-0.105 0.018-0.164 0.015-0.178-0.01v0c-0.018-0.034-0.008-0.07 0.032-0.107v0c0.025-0.014 0.051-0.017 0.077-0.009v0c0.328-0.2 0.587-0.378 0.775-0.535 0.182-0.158 0.375-0.381 0.58-0.666z"
                                                            fill="#7c4e29"
                                                            data-fill-palette-color="primary"></path>
                                                    </g>
                                                </svg>
                                            </g>
                                        </svg>
                                    </g>
                                </svg>
                            </g>
                            <g></g>
                        </svg>
                    </g>
                    <defs></defs>
                </svg>
                <rect width="279.72" height="279.72" fill="none" stroke="none" visibility="hidden"></rect>
            </g>
        </svg>
    </g>
</svg>